0
SECTION
2
HEADER
9
$ACADVER
1
AC1008
9
$UCSORG
10
0.0
20
0.0
30
0.0
9
$UCSXDIR
10
1
20
0.0
30
0.0
9
$TILEMODE
70
1
9
$UCSYDIR
10
0.0
20
0.0
30
1
9
$EXTMIN
10
0.0
20
50
30
0.0
9
$EXTMAX
10
15
20
0.0
30
20
0
ENDSEC
0
SECTION
2
TABLES
0
TABLE
2
LTYPE
70
1
0
LTYPE
2
SOLIDLINE
70
64
3
Solid line
72
65
73
0
40
0.0
0
ENDTAB
0
TABLE
2
LAYER
70
1
0
LAYER
2
0
70
0
62
252
6
SOLIDLINE
0
ENDTAB
0
ENDSEC
0
SECTION
2
ENTITIES
0
3DFACE
8
0
62
252
10
6.75
20
10.0471
30
0.15
11
6.75
21
0.15
31
0.15
12
6.675
22
0.075
32
0.075
13
6.675
23
0.075
33
0.075
0
3DFACE
8
0
62
252
10
6.6
20
9.91621
30
0.0
11
6.75
21
10.0471
31
0.15
12
6.675
22
0.075
32
0.075
13
6.675
23
0.075
33
0.075
0
3DFACE
8
0
62
252
10
6.6
20
0.15
30
0.0
11
6.6
21
9.91621
31
0.0
12
6.675
22
0.075
32
0.075
13
6.675
23
0.075
33
0.075
0
3DFACE
8
0
62
252
10
11.4949
20
11.5233
30
0.15
11
10.1548
21
10.4525
31
0.0
12
9.9846
22
10.5386
32
0.15
13
9.9846
23
10.5386
33
0.15
0
3DFACE
8
0
62
252
10
11.6732
20
11.4826
30
0.0
11
10.1548
21
10.4525
31
0.0
12
11.4949
22
11.5233
32
0.15
13
11.4949
23
11.5233
33
0.15
0
3DFACE
8
0
62
252
10
13.3295
20
14.5798
30
0.15
11
12.8202
21
12.9148
31
0.0
12
12.6444
22
12.9122
32
0.15
13
12.6444
23
12.9122
33
0.15
0
3DFACE
8
0
62
252
10
13.4936
20
14.6217
30
0.0
11
12.8202
21
12.9148
31
0.0
12
13.3295
22
14.5798
32
0.15
13
13.3295
23
14.5798
33
0.15
0
3DFACE
8
0
62
252
10
13.1063
20
18.1377
30
0.15
11
13.6334
21
16.4512
31
0.0
12
13.4882
22
16.3757
32
0.15
13
13.4882
23
16.3757
33
0.15
0
3DFACE
8
0
62
252
10
13.2273
20
18.2406
30
0.0
11
13.6334
21
16.4512
31
0.0
12
13.1063
22
18.1377
32
0.15
13
13.1063
23
18.1377
33
0.15
0
3DFACE
8
0
62
252
10
10.9039
20
20.941
30
0.15
11
12.3114
21
19.8305
31
0.0
12
12.2181
22
19.7067
32
0.15
13
12.2181
23
19.7067
33
0.15
0
3DFACE
8
0
62
252
10
10.9672
20
21.0795
30
0.0
11
12.3114
21
19.8305
31
0.0
12
10.9039
22
20.941
32
0.15
13
10.9039
23
20.941
33
0.15
0
3DFACE
8
0
62
252
10
7.5
20
22
30
0.15
11
9.31435
21
21.8763
31
0.0
12
9.28244
22
21.7291
32
0.15
13
9.28244
23
21.7291
33
0.15
0
3DFACE
8
0
62
252
10
7.5
20
22.15
30
0.0
11
9.31435
21
21.8763
31
0.0
12
7.5
22
22
32
0.15
13
7.5
23
22
33
0.15
0
3DFACE
8
0
62
252
10
5.68565
20
21.8763
30
0.0
11
7.5
21
22.15
31
0.0
12
7.5
22
22
32
0.15
13
7.5
23
22
33
0.15
0
3DFACE
8
0
62
252
10
4.09605
20
20.941
30
0.15
11
4.03281
21
21.0795
31
0.0
12
5.71756
22
21.7291
32
0.15
13
5.71756
23
21.7291
33
0.15
0
3DFACE
8
0
62
252
10
2.6886
20
19.8305
30
0.0
11
4.03281
21
21.0795
31
0.0
12
4.09605
22
20.941
32
0.15
13
4.09605
23
20.941
33
0.15
0
3DFACE
8
0
62
252
10
1.89374
20
18.1377
30
0.15
11
1.77268
21
18.2406
31
0.0
12
2.7819
22
19.7067
32
0.15
13
2.7819
23
19.7067
33
0.15
0
3DFACE
8
0
62
252
10
1.36657
20
16.4512
30
0.0
11
1.77268
21
18.2406
31
0.0
12
1.89374
22
18.1377
32
0.15
13
1.89374
23
18.1377
33
0.15
0
3DFACE
8
0
62
252
10
2.35557
20
12.9122
30
0.15
11
1.50644
21
14.6217
31
0.0
12
1.6705
22
14.5798
32
0.15
13
1.6705
23
14.5798
33
0.15
0
3DFACE
8
0
62
252
10
2.17983
20
12.9148
30
0.0
11
1.50644
21
14.6217
31
0.0
12
2.35557
22
12.9122
32
0.15
13
2.35557
23
12.9122
33
0.15
0
3DFACE
8
0
62
252
10
3.3268
20
11.4826
30
0.0
11
2.17983
21
12.9148
31
0.0
12
2.35557
22
12.9122
32
0.15
13
2.35557
23
12.9122
33
0.15
0
3DFACE
8
0
62
252
10
5.0154
20
10.5386
30
0.15
11
4.84524
21
10.4525
31
0.0
12
3.50513
22
11.5233
32
0.15
13
3.50513
23
11.5233
33
0.15
0
3DFACE
8
0
62
252
10
6.6
20
9.91621
30
0.0
11
4.84524
21
10.4525
31
0.0
12
5.0154
22
10.5386
32
0.15
13
5.0154
23
10.5386
33
0.15
0
3DFACE
8
0
62
252
10
6.75
20
10.0471
30
0.15
11
6.6
21
9.91621
31
0.0
12
5.0154
22
10.5386
32
0.15
13
5.0154
23
10.5386
33
0.15
0
3DFACE
8
0
62
252
10
3.3268
20
11.4826
30
0.0
11
3.50513
21
11.5233
31
0.15
12
4.84524
22
10.4525
32
0.0
13
4.84524
23
10.4525
33
0.0
0
3DFACE
8
0
62
252
10
3.50513
20
11.5233
30
0.15
11
3.3268
21
11.4826
31
0.0
12
2.35557
22
12.9122
32
0.15
13
2.35557
23
12.9122
33
0.15
0
3DFACE
8
0
62
252
10
1.36657
20
16.4512
30
0.0
11
1.6705
21
14.5798
31
0.15
12
1.50644
22
14.6217
32
0.0
13
1.50644
23
14.6217
33
0.0
0
3DFACE
8
0
62
252
10
1.51178
20
16.3757
30
0.15
11
1.6705
21
14.5798
31
0.15
12
1.36657
22
16.4512
32
0.0
13
1.36657
23
16.4512
33
0.0
0
3DFACE
8
0
62
252
10
1.51178
20
16.3757
30
0.15
11
1.36657
21
16.4512
31
0.0
12
1.89374
22
18.1377
32
0.15
13
1.89374
23
18.1377
33
0.15
0
3DFACE
8
0
62
252
10
2.6886
20
19.8305
30
0.0
11
2.7819
21
19.7067
31
0.15
12
1.77268
22
18.2406
32
0.0
13
1.77268
23
18.2406
33
0.0
0
3DFACE
8
0
62
252
10
2.7819
20
19.7067
30
0.15
11
2.6886
21
19.8305
31
0.0
12
4.09605
22
20.941
32
0.15
13
4.09605
23
20.941
33
0.15
0
3DFACE
8
0
62
252
10
5.68565
20
21.8763
30
0.0
11
5.71756
21
21.7291
31
0.15
12
4.03281
22
21.0795
32
0.0
13
4.03281
23
21.0795
33
0.0
0
3DFACE
8
0
62
252
10
5.71756
20
21.7291
30
0.15
11
5.68565
21
21.8763
31
0.0
12
7.5
22
22
32
0.15
13
7.5
23
22
33
0.15
0
3DFACE
8
0
62
252
10
10.9672
20
21.0795
30
0.0
11
9.28244
21
21.7291
31
0.15
12
9.31435
22
21.8763
32
0.0
13
9.31435
23
21.8763
33
0.0
0
3DFACE
8
0
62
252
10
9.28244
20
21.7291
30
0.15
11
10.9672
21
21.0795
31
0.0
12
10.9039
22
20.941
32
0.15
13
10.9039
23
20.941
33
0.15
0
3DFACE
8
0
62
252
10
13.2273
20
18.2406
30
0.0
11
12.2181
21
19.7067
31
0.15
12
12.3114
22
19.8305
32
0.0
13
12.3114
23
19.8305
33
0.0
0
3DFACE
8
0
62
252
10
12.2181
20
19.7067
30
0.15
11
13.2273
21
18.2406
31
0.0
12
13.1063
22
18.1377
32
0.15
13
13.1063
23
18.1377
33
0.15
0
3DFACE
8
0
62
252
10
13.4936
20
14.6217
30
0.0
11
13.4882
21
16.3757
31
0.15
12
13.6334
22
16.4512
32
0.0
13
13.6334
23
16.4512
33
0.0
0
3DFACE
8
0
62
252
10
13.4882
20
16.3757
30
0.15
11
13.4936
21
14.6217
31
0.0
12
13.3295
22
14.5798
32
0.15
13
13.3295
23
14.5798
33
0.15
0
3DFACE
8
0
62
252
10
11.6732
20
11.4826
30
0.0
11
12.6444
21
12.9122
31
0.15
12
12.8202
22
12.9148
32
0.0
13
12.8202
23
12.9148
33
0.0
0
3DFACE
8
0
62
252
10
12.6444
20
12.9122
30
0.15
11
11.6732
21
11.4826
31
0.0
12
11.4949
22
11.5233
32
0.15
13
11.4949
23
11.5233
33
0.15
0
3DFACE
8
0
62
252
10
8.4
20
9.91621
30
0.0
11
9.9846
21
10.5386
31
0.15
12
10.1548
22
10.4525
32
0.0
13
10.1548
23
10.4525
33
0.0
0
3DFACE
8
0
62
252
10
8.25
20
10.0471
30
0.15
11
9.9846
21
10.5386
31
0.15
12
8.4
22
9.91621
32
0.0
13
8.4
23
9.91621
33
0.0
0
3DFACE
8
0
62
252
10
8.4
20
9.91621
30
0.0
11
8.4
21
0.15
31
0.0
12
8.325
22
0.075
32
0.075
13
8.325
23
0.075
33
0.075
0
3DFACE
8
0
62
252
10
8.25
20
10.0471
30
0.15
11
8.4
21
9.91621
31
0.0
12
8.325
22
0.075
32
0.075
13
8.325
23
0.075
33
0.075
0
3DFACE
8
0
62
252
10
8.25
20
0.15
30
0.15
11
8.25
21
10.0471
31
0.15
12
8.325
22
0.075
32
0.075
13
8.325
23
0.075
33
0.075
0
3DFACE
8
0
62
252
10
6.6
20
0.0
30
0.15
11
6.675
21
0.075
31
0.075
12
6.675
22
0.075
32
9.925
13
6.675
23
0.075
33
9.925
0
3DFACE
8
0
62
252
10
6.6
20
0.0
30
9.85
11
6.6
21
0.0
31
0.15
12
6.675
22
0.075
32
9.925
13
6.675
23
0.075
33
9.925
0
3DFACE
8
0
62
252
10
6.75
20
0.15
30
9.85
11
6.675
21
0.075
31
9.925
12
6.675
22
0.075
32
0.075
13
6.675
23
0.075
33
0.075
0
3DFACE
8
0
62
252
10
6.75
20
0.15
30
0.15
11
6.75
21
0.15
31
9.85
12
6.675
22
0.075
32
0.075
13
6.675
23
0.075
33
0.075
0
3DFACE
8
0
62
252
10
6.75
20
10.0471
30
0.15
11
6.75
21
6.65781
31
3.12872
12
6.75
22
5.59829
32
2.57265
13
6.75
23
5.59829
33
2.57265
0
3DFACE
8
0
62
252
10
6.75
20
5
30
7.5
11
6.75
21
0.15
31
9.85
12
6.75
22
3.83819
32
7.21364
13
6.75
23
3.83819
33
7.21364
0
3DFACE
8
0
62
252
10
6.75
20
10.0471
30
9.85
11
6.75
21
0.15
31
9.85
12
6.75
22
5
32
7.5
13
6.75
23
5
33
7.5
0
3DFACE
8
0
62
252
10
6.75
20
0.15
30
0.15
11
6.75
21
10.0471
31
0.15
12
6.75
22
5.59829
32
2.57265
13
6.75
23
5.59829
33
2.57265
0
3DFACE
8
0
62
252
10
6.75
20
2.94254
30
6.42016
11
6.75
21
3.83819
31
7.21364
12
6.75
22
0.15
32
9.85
13
6.75
23
0.15
33
9.85
0
3DFACE
8
0
62
252
10
6.75
20
2.51823
30
5.30134
11
6.75
21
2.94254
31
6.42016
12
6.75
22
0.15
32
9.85
13
6.75
23
0.15
33
9.85
0
3DFACE
8
0
62
252
10
6.75
20
0.15
30
0.15
11
6.75
21
2.51823
31
5.30134
12
6.75
22
0.15
32
9.85
13
6.75
23
0.15
33
9.85
0
3DFACE
8
0
62
252
10
6.75
20
2.66246
30
4.11349
11
6.75
21
2.51823
31
5.30134
12
6.75
22
0.15
32
0.15
13
6.75
23
0.15
33
0.15
0
3DFACE
8
0
62
252
10
6.75
20
3.34219
30
3.12872
11
6.75
21
2.66246
31
4.11349
12
6.75
22
0.15
32
0.15
13
6.75
23
0.15
33
0.15
0
3DFACE
8
0
62
252
10
6.75
20
4.40171
30
2.57265
11
6.75
21
3.34219
31
3.12872
12
6.75
22
0.15
32
0.15
13
6.75
23
0.15
33
0.15
0
3DFACE
8
0
62
252
10
6.75
20
4.40171
30
2.57265
11
6.75
21
0.15
31
0.15
12
6.75
22
5.59829
32
2.57265
13
6.75
23
5.59829
33
2.57265
0
3DFACE
8
0
62
252
10
6.75
20
7.33754
30
4.11349
11
6.75
21
6.65781
31
3.12872
12
6.75
22
10.0471
32
0.15
13
6.75
23
10.0471
33
0.15
0
3DFACE
8
0
62
252
10
6.75
20
7.48177
30
5.30134
11
6.75
21
7.33754
31
4.11349
12
6.75
22
10.0471
32
0.15
13
6.75
23
10.0471
33
0.15
0
3DFACE
8
0
62
252
10
6.75
20
10.0471
30
9.85
11
6.75
21
7.48177
31
5.30134
12
6.75
22
10.0471
32
0.15
13
6.75
23
10.0471
33
0.15
0
3DFACE
8
0
62
252
10
6.75
20
7.05746
30
6.42016
11
6.75
21
7.48177
31
5.30134
12
6.75
22
10.0471
32
9.85
13
6.75
23
10.0471
33
9.85
0
3DFACE
8
0
62
252
10
6.75
20
6.16181
30
7.21364
11
6.75
21
7.05746
31
6.42016
12
6.75
22
10.0471
32
9.85
13
6.75
23
10.0471
33
9.85
0
3DFACE
8
0
62
252
10
6.75
20
6.16181
30
7.21364
11
6.75
21
10.0471
31
9.85
12
6.75
22
5
32
7.5
13
6.75
23
5
33
7.5
0
3DFACE
8
0
62
252
10
9.28244
20
21.7291
30
9.85
11
9.28244
21
21.7291
31
0.15
12
10.9039
22
20.941
32
0.15
13
10.9039
23
20.941
33
0.15
0
3DFACE
8
0
62
252
10
3.50513
20
11.5233
30
0.15
11
5.0154
21
10.5386
31
9.85
12
5.0154
22
10.5386
32
0.15
13
5.0154
23
10.5386
33
0.15
0
3DFACE
8
0
62
252
10
3.50513
20
11.5233
30
9.85
11
5.0154
21
10.5386
31
9.85
12
3.50513
22
11.5233
32
0.15
13
3.50513
23
11.5233
33
0.15
0
3DFACE
8
0
62
252
10
1.6705
20
14.5798
30
0.15
11
2.35557
21
12.9122
31
9.85
12
2.35557
22
12.9122
32
0.15
13
2.35557
23
12.9122
33
0.15
0
3DFACE
8
0
62
252
10
1.6705
20
14.5798
30
9.85
11
2.35557
21
12.9122
31
9.85
12
1.6705
22
14.5798
32
0.15
13
1.6705
23
14.5798
33
0.15
0
3DFACE
8
0
62
252
10
1.89374
20
18.1377
30
0.15
11
1.51178
21
16.3757
31
9.85
12
1.51178
22
16.3757
32
0.15
13
1.51178
23
16.3757
33
0.15
0
3DFACE
8
0
62
252
10
1.89374
20
18.1377
30
9.85
11
1.51178
21
16.3757
31
9.85
12
1.89374
22
18.1377
32
0.15
13
1.89374
23
18.1377
33
0.15
0
3DFACE
8
0
62
252
10
4.09605
20
20.941
30
0.15
11
2.7819
21
19.7067
31
9.85
12
2.7819
22
19.7067
32
0.15
13
2.7819
23
19.7067
33
0.15
0
3DFACE
8
0
62
252
10
4.09605
20
20.941
30
9.85
11
2.7819
21
19.7067
31
9.85
12
4.09605
22
20.941
32
0.15
13
4.09605
23
20.941
33
0.15
0
3DFACE
8
0
62
252
10
5.71756
20
21.7291
30
9.85
11
4.09605
21
20.941
31
9.85
12
5.71756
22
21.7291
32
0.15
13
5.71756
23
21.7291
33
0.15
0
3DFACE
8
0
62
252
10
7.5
20
22
30
9.85
11
5.71756
21
21.7291
31
9.85
12
5.71756
22
21.7291
32
0.15
13
5.71756
23
21.7291
33
0.15
0
3DFACE
8
0
62
252
10
10.9039
20
20.941
30
9.85
11
9.28244
21
21.7291
31
9.85
12
10.9039
22
20.941
32
0.15
13
10.9039
23
20.941
33
0.15
0
3DFACE
8
0
62
252
10
13.1063
20
18.1377
30
0.15
11
12.2181
21
19.7067
31
9.85
12
12.2181
22
19.7067
32
0.15
13
12.2181
23
19.7067
33
0.15
0
3DFACE
8
0
62
252
10
13.1063
20
18.1377
30
9.85
11
12.2181
21
19.7067
31
9.85
12
13.1063
22
18.1377
32
0.15
13
13.1063
23
18.1377
33
0.15
0
3DFACE
8
0
62
252
10
13.3295
20
14.5798
30
0.15
11
13.4882
21
16.3757
31
9.85
12
13.4882
22
16.3757
32
0.15
13
13.4882
23
16.3757
33
0.15
0
3DFACE
8
0
62
252
10
13.3295
20
14.5798
30
9.85
11
13.4882
21
16.3757
31
9.85
12
13.3295
22
14.5798
32
0.15
13
13.3295
23
14.5798
33
0.15
0
3DFACE
8
0
62
252
10
11.4949
20
11.5233
30
0.15
11
12.6444
21
12.9122
31
9.85
12
12.6444
22
12.9122
32
0.15
13
12.6444
23
12.9122
33
0.15
0
3DFACE
8
0
62
252
10
11.4949
20
11.5233
30
9.85
11
12.6444
21
12.9122
31
9.85
12
11.4949
22
11.5233
32
0.15
13
11.4949
23
11.5233
33
0.15
0
3DFACE
8
0
62
252
10
8.25
20
10.0471
30
0.15
11
9.9846
21
10.5386
31
9.85
12
9.9846
22
10.5386
32
0.15
13
9.9846
23
10.5386
33
0.15
0
3DFACE
8
0
62
252
10
8.25
20
10.0471
30
9.85
11
9.9846
21
10.5386
31
9.85
12
8.25
22
10.0471
32
0.15
13
8.25
23
10.0471
33
0.15
0
3DFACE
8
0
62
252
10
11.4949
20
11.5233
30
9.85
11
9.9846
21
10.5386
31
0.15
12
9.9846
22
10.5386
32
9.85
13
9.9846
23
10.5386
33
9.85
0
3DFACE
8
0
62
252
10
9.9846
20
10.5386
30
0.15
11
11.4949
21
11.5233
31
9.85
12
11.4949
22
11.5233
32
0.15
13
11.4949
23
11.5233
33
0.15
0
3DFACE
8
0
62
252
10
13.3295
20
14.5798
30
9.85
11
12.6444
21
12.9122
31
0.15
12
12.6444
22
12.9122
32
9.85
13
12.6444
23
12.9122
33
9.85
0
3DFACE
8
0
62
252
10
12.6444
20
12.9122
30
0.15
11
13.3295
21
14.5798
31
9.85
12
13.3295
22
14.5798
32
0.15
13
13.3295
23
14.5798
33
0.15
0
3DFACE
8
0
62
252
10
13.1063
20
18.1377
30
9.85
11
13.4882
21
16.3757
31
0.15
12
13.4882
22
16.3757
32
9.85
13
13.4882
23
16.3757
33
9.85
0
3DFACE
8
0
62
252
10
13.4882
20
16.3757
30
0.15
11
13.1063
21
18.1377
31
9.85
12
13.1063
22
18.1377
32
0.15
13
13.1063
23
18.1377
33
0.15
0
3DFACE
8
0
62
252
10
10.9039
20
20.941
30
9.85
11
12.2181
21
19.7067
31
0.15
12
12.2181
22
19.7067
32
9.85
13
12.2181
23
19.7067
33
9.85
0
3DFACE
8
0
62
252
10
12.2181
20
19.7067
30
0.15
11
10.9039
21
20.941
31
9.85
12
10.9039
22
20.941
32
0.15
13
10.9039
23
20.941
33
0.15
0
3DFACE
8
0
62
252
10
7.5
20
22
30
0.15
11
9.28244
21
21.7291
31
0.15
12
9.28244
22
21.7291
32
9.85
13
9.28244
23
21.7291
33
9.85
0
3DFACE
8
0
62
252
10
7.5
20
22
30
9.85
11
7.5
21
22
31
0.15
12
9.28244
22
21.7291
32
9.85
13
9.28244
23
21.7291
33
9.85
0
3DFACE
8
0
62
252
10
7.5
20
22
30
0.15
11
7.5
21
22
31
9.85
12
5.71756
22
21.7291
32
0.15
13
5.71756
23
21.7291
33
0.15
0
3DFACE
8
0
62
252
10
5.71756
20
21.7291
30
0.15
11
4.09605
21
20.941
31
9.85
12
4.09605
22
20.941
32
0.15
13
4.09605
23
20.941
33
0.15
0
3DFACE
8
0
62
252
10
1.89374
20
18.1377
30
9.85
11
2.7819
21
19.7067
31
0.15
12
2.7819
22
19.7067
32
9.85
13
2.7819
23
19.7067
33
9.85
0
3DFACE
8
0
62
252
10
2.7819
20
19.7067
30
0.15
11
1.89374
21
18.1377
31
9.85
12
1.89374
22
18.1377
32
0.15
13
1.89374
23
18.1377
33
0.15
0
3DFACE
8
0
62
252
10
1.6705
20
14.5798
30
9.85
11
1.51178
21
16.3757
31
0.15
12
1.51178
22
16.3757
32
9.85
13
1.51178
23
16.3757
33
9.85
0
3DFACE
8
0
62
252
10
1.51178
20
16.3757
30
0.15
11
1.6705
21
14.5798
31
9.85
12
1.6705
22
14.5798
32
0.15
13
1.6705
23
14.5798
33
0.15
0
3DFACE
8
0
62
252
10
3.50513
20
11.5233
30
9.85
11
2.35557
21
12.9122
31
0.15
12
2.35557
22
12.9122
32
9.85
13
2.35557
23
12.9122
33
9.85
0
3DFACE
8
0
62
252
10
2.35557
20
12.9122
30
0.15
11
3.50513
21
11.5233
31
9.85
12
3.50513
22
11.5233
32
0.15
13
3.50513
23
11.5233
33
0.15
0
3DFACE
8
0
62
252
10
6.75
20
10.0471
30
9.85
11
5.0154
21
10.5386
31
0.15
12
5.0154
22
10.5386
32
9.85
13
5.0154
23
10.5386
33
9.85
0
3DFACE
8
0
62
252
10
6.75
20
10.0471
30
0.15
11
5.0154
21
10.5386
31
0.15
12
6.75
22
10.0471
32
9.85
13
6.75
23
10.0471
33
9.85
0
3DFACE
8
0
62
252
10
8.25
20
5.59829
30
2.57265
11
8.25
21
0.15
31
0.15
12
8.25
22
4.40171
32
2.57265
13
8.25
23
4.40171
33
2.57265
0
3DFACE
8
0
62
252
10
8.25
20
10.0471
30
9.85
11
8.25
21
6.16181
31
7.21364
12
8.25
22
5
32
7.5
13
8.25
23
5
33
7.5
0
3DFACE
8
0
62
252
10
8.25
20
0.15
30
9.85
11
8.25
21
10.0471
31
9.85
12
8.25
22
5
32
7.5
13
8.25
23
5
33
7.5
0
3DFACE
8
0
62
252
10
8.25
20
10.0471
30
0.15
11
8.25
21
0.15
31
0.15
12
8.25
22
5.59829
32
2.57265
13
8.25
23
5.59829
33
2.57265
0
3DFACE
8
0
62
252
10
8.25
20
7.05746
30
6.42016
11
8.25
21
6.16181
31
7.21364
12
8.25
22
10.0471
32
9.85
13
8.25
23
10.0471
33
9.85
0
3DFACE
8
0
62
252
10
8.25
20
7.48177
30
5.30134
11
8.25
21
7.05746
31
6.42016
12
8.25
22
10.0471
32
9.85
13
8.25
23
10.0471
33
9.85
0
3DFACE
8
0
62
252
10
8.25
20
10.0471
30
0.15
11
8.25
21
7.48177
31
5.30134
12
8.25
22
10.0471
32
9.85
13
8.25
23
10.0471
33
9.85
0
3DFACE
8
0
62
252
10
8.25
20
7.33754
30
4.11349
11
8.25
21
7.48177
31
5.30134
12
8.25
22
10.0471
32
0.15
13
8.25
23
10.0471
33
0.15
0
3DFACE
8
0
62
252
10
8.25
20
6.65781
30
3.12872
11
8.25
21
7.33754
31
4.11349
12
8.25
22
10.0471
32
0.15
13
8.25
23
10.0471
33
0.15
0
3DFACE
8
0
62
252
10
8.25
20
6.65781
30
3.12872
11
8.25
21
10.0471
31
0.15
12
8.25
22
5.59829
32
2.57265
13
8.25
23
5.59829
33
2.57265
0
3DFACE
8
0
62
252
10
8.25
20
3.34219
30
3.12872
11
8.25
21
4.40171
31
2.57265
12
8.25
22
0.15
32
0.15
13
8.25
23
0.15
33
0.15
0
3DFACE
8
0
62
252
10
8.25
20
2.66246
30
4.11349
11
8.25
21
3.34219
31
3.12872
12
8.25
22
0.15
32
0.15
13
8.25
23
0.15
33
0.15
0
3DFACE
8
0
62
252
10
8.25
20
2.51823
30
5.30134
11
8.25
21
2.66246
31
4.11349
12
8.25
22
0.15
32
0.15
13
8.25
23
0.15
33
0.15
0
3DFACE
8
0
62
252
10
8.25
20
0.15
30
9.85
11
8.25
21
2.51823
31
5.30134
12
8.25
22
0.15
32
0.15
13
8.25
23
0.15
33
0.15
0
3DFACE
8
0
62
252
10
8.25
20
2.94254
30
6.42016
11
8.25
21
2.51823
31
5.30134
12
8.25
22
0.15
32
9.85
13
8.25
23
0.15
33
9.85
0
3DFACE
8
0
62
252
10
8.25
20
3.83819
30
7.21364
11
8.25
21
2.94254
31
6.42016
12
8.25
22
0.15
32
9.85
13
8.25
23
0.15
33
9.85
0
3DFACE
8
0
62
252
10
8.25
20
3.83819
30
7.21364
11
8.25
21
0.15
31
9.85
12
8.25
22
5
32
7.5
13
8.25
23
5
33
7.5
0
3DFACE
8
0
62
252
10
8.325
20
0.075
30
0.075
11
8.325
21
0.075
31
9.925
12
8.25
22
0.15
32
0.15
13
8.25
23
0.15
33
0.15
0
3DFACE
8
0
62
252
10
8.4
20
0.0
30
9.85
11
8.325
21
0.075
31
9.925
12
8.325
22
0.075
32
0.075
13
8.325
23
0.075
33
0.075
0
3DFACE
8
0
62
252
10
8.4
20
0.0
30
0.15
11
8.4
21
0.0
31
9.85
12
8.325
22
0.075
32
0.075
13
8.325
23
0.075
33
0.075
0
3DFACE
8
0
62
252
10
8.25
20
0.15
30
9.85
11
8.25
21
0.15
31
0.15
12
8.325
22
0.075
32
9.925
13
8.325
23
0.075
33
9.925
0
3DFACE
8
0
62
252
10
14.85
20
50
30
0.15
11
14.925
21
49.925
31
0.075
12
0.075
22
49.925
32
0.075
13
0.075
23
49.925
33
0.075
0
3DFACE
8
0
62
252
10
0.15
20
50
30
0.15
11
14.85
21
50
31
0.15
12
0.075
22
49.925
32
0.075
13
0.075
23
49.925
33
0.075
0
3DFACE
8
0
62
252
10
0.15
20
49.85
30
0.0
11
0.075
21
49.925
31
0.075
12
14.925
22
49.925
32
0.075
13
14.925
23
49.925
33
0.075
0
3DFACE
8
0
62
252
10
14.85
20
49.85
30
0.0
11
0.15
21
49.85
31
0.0
12
14.925
22
49.925
32
0.075
13
14.925
23
49.925
33
0.075
0
3DFACE
8
0
62
252
10
0.0
20
0.15
30
0.15
11
0.0
21
49.85
31
0.15
12
0.075
22
49.925
32
0.075
13
0.075
23
49.925
33
0.075
0
3DFACE
8
0
62
252
10
0.075
20
0.075
30
0.075
11
0.0
21
0.15
31
0.15
12
0.075
22
49.925
32
0.075
13
0.075
23
49.925
33
0.075
0
3DFACE
8
0
62
252
10
0.15
20
0.15
30
0.0
11
0.075
21
0.075
31
0.075
12
0.075
22
49.925
32
0.075
13
0.075
23
49.925
33
0.075
0
3DFACE
8
0
62
252
10
0.15
20
49.85
30
0.0
11
0.15
21
0.15
31
0.0
12
0.075
22
49.925
32
0.075
13
0.075
23
49.925
33
0.075
0
3DFACE
8
0
62
252
10
0.15
20
0.15
30
0.0
11
3.3268
21
11.4826
31
0.0
12
6.6
22
0.15
32
0.0
13
6.6
23
0.15
33
0.0
0
3DFACE
8
0
62
252
10
2.17983
20
12.9148
30
0.0
11
3.3268
21
11.4826
31
0.0
12
0.15
22
0.15
32
0.0
13
0.15
23
0.15
33
0.0
0
3DFACE
8
0
62
252
10
1.50644
20
14.6217
30
0.0
11
2.17983
21
12.9148
31
0.0
12
0.15
22
0.15
32
0.0
13
0.15
23
0.15
33
0.0
0
3DFACE
8
0
62
252
10
1.36657
20
16.4512
30
0.0
11
1.50644
21
14.6217
31
0.0
12
0.15
22
0.15
32
0.0
13
0.15
23
0.15
33
0.0
0
3DFACE
8
0
62
252
10
1.77268
20
18.2406
30
0.0
11
1.36657
21
16.4512
31
0.0
12
0.15
22
49.85
32
0.0
13
0.15
23
49.85
33
0.0
0
3DFACE
8
0
62
252
10
2.6886
20
19.8305
30
0.0
11
1.77268
21
18.2406
31
0.0
12
0.15
22
49.85
32
0.0
13
0.15
23
49.85
33
0.0
0
3DFACE
8
0
62
252
10
4.03281
20
21.0795
30
0.0
11
2.6886
21
19.8305
31
0.0
12
0.15
22
49.85
32
0.0
13
0.15
23
49.85
33
0.0
0
3DFACE
8
0
62
252
10
5.68565
20
21.8763
30
0.0
11
4.03281
21
21.0795
31
0.0
12
0.15
22
49.85
32
0.0
13
0.15
23
49.85
33
0.0
0
3DFACE
8
0
62
252
10
7.5
20
22.15
30
0.0
11
5.68565
21
21.8763
31
0.0
12
0.15
22
49.85
32
0.0
13
0.15
23
49.85
33
0.0
0
3DFACE
8
0
62
252
10
9.31435
20
21.8763
30
0.0
11
7.5
21
22.15
31
0.0
12
14.85
22
49.85
32
0.0
13
14.85
23
49.85
33
0.0
0
3DFACE
8
0
62
252
10
10.9672
20
21.0795
30
0.0
11
9.31435
21
21.8763
31
0.0
12
14.85
22
49.85
32
0.0
13
14.85
23
49.85
33
0.0
0
3DFACE
8
0
62
252
10
12.3114
20
19.8305
30
0.0
11
10.9672
21
21.0795
31
0.0
12
14.85
22
49.85
32
0.0
13
14.85
23
49.85
33
0.0
0
3DFACE
8
0
62
252
10
13.2273
20
18.2406
30
0.0
11
12.3114
21
19.8305
31
0.0
12
14.85
22
49.85
32
0.0
13
14.85
23
49.85
33
0.0
0
3DFACE
8
0
62
252
10
13.6334
20
16.4512
30
0.0
11
13.2273
21
18.2406
31
0.0
12
14.85
22
49.85
32
0.0
13
14.85
23
49.85
33
0.0
0
3DFACE
8
0
62
252
10
13.4936
20
14.6217
30
0.0
11
13.6334
21
16.4512
31
0.0
12
14.85
22
0.15
32
0.0
13
14.85
23
0.15
33
0.0
0
3DFACE
8
0
62
252
10
12.8202
20
12.9148
30
0.0
11
13.4936
21
14.6217
31
0.0
12
14.85
22
0.15
32
0.0
13
14.85
23
0.15
33
0.0
0
3DFACE
8
0
62
252
10
11.6732
20
11.4826
30
0.0
11
12.8202
21
12.9148
31
0.0
12
14.85
22
0.15
32
0.0
13
14.85
23
0.15
33
0.0
0
3DFACE
8
0
62
252
10
10.1548
20
10.4525
30
0.0
11
11.6732
21
11.4826
31
0.0
12
8.4
22
0.15
32
0.0
13
8.4
23
0.15
33
0.0
0
3DFACE
8
0
62
252
10
8.4
20
9.91621
30
0.0
11
10.1548
21
10.4525
31
0.0
12
8.4
22
0.15
32
0.0
13
8.4
23
0.15
33
0.0
0
3DFACE
8
0
62
252
10
8.4
20
0.15
30
0.0
11
11.6732
21
11.4826
31
0.0
12
14.85
22
0.15
32
0.0
13
14.85
23
0.15
33
0.0
0
3DFACE
8
0
62
252
10
14.85
20
0.15
30
0.0
11
13.6334
21
16.4512
31
0.0
12
14.85
22
49.85
32
0.0
13
14.85
23
49.85
33
0.0
0
3DFACE
8
0
62
252
10
14.85
20
49.85
30
0.0
11
7.5
21
22.15
31
0.0
12
0.15
22
49.85
32
0.0
13
0.15
23
49.85
33
0.0
0
3DFACE
8
0
62
252
10
0.15
20
49.85
30
0.0
11
1.36657
21
16.4512
31
0.0
12
0.15
22
0.15
32
0.0
13
0.15
23
0.15
33
0.0
0
3DFACE
8
0
62
252
10
4.84524
20
10.4525
30
0.0
11
6.6
21
0.15
31
0.0
12
3.3268
22
11.4826
32
0.0
13
3.3268
23
11.4826
33
0.0
0
3DFACE
8
0
62
252
10
6.6
20
9.91621
30
0.0
11
6.6
21
0.15
31
0.0
12
4.84524
22
10.4525
32
0.0
13
4.84524
23
10.4525
33
0.0
0
3DFACE
8
0
62
252
10
14.925
20
0.075
30
0.075
11
14.85
21
0.15
31
0.0
12
14.925
22
49.925
32
0.075
13
14.925
23
49.925
33
0.075
0
3DFACE
8
0
62
252
10
15
20
0.15
30
0.15
11
14.925
21
0.075
31
0.075
12
14.925
22
49.925
32
0.075
13
14.925
23
49.925
33
0.075
0
3DFACE
8
0
62
252
10
15
20
49.85
30
0.15
11
15
21
0.15
31
0.15
12
14.925
22
49.925
32
0.075
13
14.925
23
49.925
33
0.075
0
3DFACE
8
0
62
252
10
14.85
20
49.85
30
0.0
11
14.925
21
49.925
31
0.075
12
14.85
22
0.15
32
0.0
13
14.85
23
0.15
33
0.0
0
3DFACE
8
0
62
252
10
0.15
20
50
30
19.85
11
0.075
21
49.925
31
19.925
12
14.925
22
49.925
32
19.925
13
14.925
23
49.925
33
19.925
0
3DFACE
8
0
62
252
10
14.85
20
50
30
19.85
11
0.15
21
50
31
19.85
12
14.925
22
49.925
32
19.925
13
14.925
23
49.925
33
19.925
0
3DFACE
8
0
62
252
10
14.85
20
49.85
30
20
11
14.925
21
49.925
31
19.925
12
0.075
22
49.925
32
19.925
13
0.075
23
49.925
33
19.925
0
3DFACE
8
0
62
252
10
0.15
20
49.85
30
20
11
14.85
21
49.85
31
20
12
0.075
22
49.925
32
19.925
13
0.075
23
49.925
33
19.925
0
3DFACE
8
0
62
252
10
0.15
20
49.85
30
20
11
0.15
21
35
31
20
12
14.85
22
35
32
20
13
14.85
23
35
33
20
0
3DFACE
8
0
62
252
10
14.85
20
49.85
30
20
11
0.15
21
49.85
31
20
12
14.85
22
35
32
20
13
14.85
23
35
33
20
0
3DFACE
8
0
62
252
10
0.0
20
35.0621
30
19.85
11
0.15
21
35
31
20
12
0.075
22
49.925
32
19.925
13
0.075
23
49.925
33
19.925
0
3DFACE
8
0
62
252
10
0.0
20
49.85
30
19.85
11
0.0
21
35.0621
31
19.85
12
0.075
22
49.925
32
19.925
13
0.075
23
49.925
33
19.925
0
3DFACE
8
0
62
252
10
0.15
20
49.85
30
20
11
0.075
21
49.925
31
19.925
12
0.15
22
35
32
20
13
0.15
23
35
33
20
0
3DFACE
8
0
62
252
10
0.075
20
49.925
30
0.075
11
0.075
21
49.925
31
19.925
12
0.15
22
50
32
0.15
13
0.15
23
50
33
0.15
0
3DFACE
8
0
62
252
10
0.0
20
49.85
30
19.85
11
0.075
21
49.925
31
19.925
12
0.075
22
49.925
32
0.075
13
0.075
23
49.925
33
0.075
0
3DFACE
8
0
62
252
10
0.0
20
49.85
30
0.15
11
0.0
21
49.85
31
19.85
12
0.075
22
49.925
32
0.075
13
0.075
23
49.925
33
0.075
0
3DFACE
8
0
62
252
10
0.15
20
50
30
19.85
11
0.15
21
50
31
0.15
12
0.075
22
49.925
32
19.925
13
0.075
23
49.925
33
19.925
0
3DFACE
8
0
62
252
10
8.4
20
0.0
30
0.15
11
8.325
21
0.075
31
0.075
12
14.925
22
0.075
32
0.075
13
14.925
23
0.075
33
0.075
0
3DFACE
8
0
62
252
10
14.85
20
0.0
30
0.15
11
8.4
21
0.0
31
0.15
12
14.925
22
0.075
32
0.075
13
14.925
23
0.075
33
0.075
0
3DFACE
8
0
62
252
10
14.85
20
0.15
30
0.0
11
14.925
21
0.075
31
0.075
12
8.325
22
0.075
32
0.075
13
8.325
23
0.075
33
0.075
0
3DFACE
8
0
62
252
10
8.4
20
0.15
30
0.0
11
14.85
21
0.15
31
0.0
12
8.325
22
0.075
32
0.075
13
8.325
23
0.075
33
0.075
0
3DFACE
8
0
62
252
10
8.4
20
0.0
30
0.15
11
14.85
21
0.0
31
0.15
12
14.85
22
0.0
32
9.85
13
14.85
23
0.0
33
9.85
0
3DFACE
8
0
62
252
10
8.4
20
0.0
30
9.85
11
8.4
21
0.0
31
0.15
12
14.85
22
0.0
32
9.85
13
14.85
23
0.0
33
9.85
0
3DFACE
8
0
62
252
10
14.925
20
0.075
30
9.925
11
14.85
21
0.0
31
0.15
12
14.925
22
0.075
32
0.075
13
14.925
23
0.075
33
0.075
0
3DFACE
8
0
62
252
10
15
20
0.15
30
9.85
11
14.925
21
0.075
31
9.925
12
14.925
22
0.075
32
0.075
13
14.925
23
0.075
33
0.075
0
3DFACE
8
0
62
252
10
15
20
0.15
30
0.15
11
15
21
0.15
31
9.85
12
14.925
22
0.075
32
0.075
13
14.925
23
0.075
33
0.075
0
3DFACE
8
0
62
252
10
14.85
20
0.0
30
9.85
11
14.85
21
0.0
31
0.15
12
14.925
22
0.075
32
9.925
13
14.925
23
0.075
33
9.925
0
3DFACE
8
0
62
252
10
6.675
20
0.075
30
0.075
11
0.075
21
0.075
31
0.075
12
6.6
22
0.15
32
0.0
13
6.6
23
0.15
33
0.0
0
3DFACE
8
0
62
252
10
0.15
20
0.0
30
0.15
11
0.075
21
0.075
31
0.075
12
6.675
22
0.075
32
0.075
13
6.675
23
0.075
33
0.075
0
3DFACE
8
0
62
252
10
6.6
20
0.0
30
0.15
11
0.15
21
0.0
31
0.15
12
6.675
22
0.075
32
0.075
13
6.675
23
0.075
33
0.075
0
3DFACE
8
0
62
252
10
0.15
20
0.15
30
0.0
11
6.6
21
0.15
31
0.0
12
0.075
22
0.075
32
0.075
13
0.075
23
0.075
33
0.075
0
3DFACE
8
0
62
252
10
6.6
20
0.0
30
9.85
11
0.15
21
0.0
31
9.85
12
0.15
22
0.0
32
0.15
13
0.15
23
0.0
33
0.15
0
3DFACE
8
0
62
252
10
6.6
20
0.0
30
0.15
11
6.6
21
0.0
31
9.85
12
0.15
22
0.0
32
0.15
13
0.15
23
0.0
33
0.15
0
3DFACE
8
0
62
252
10
0.075
20
0.075
30
9.925
11
6.6
21
0.0
31
9.85
12
6.675
22
0.075
32
9.925
13
6.675
23
0.075
33
9.925
0
3DFACE
8
0
62
252
10
0.15
20
0.15
30
10
11
0.075
21
0.075
31
9.925
12
6.675
22
0.075
32
9.925
13
6.675
23
0.075
33
9.925
0
3DFACE
8
0
62
252
10
6.6
20
0.15
30
10
11
0.15
21
0.15
31
10
12
6.675
22
0.075
32
9.925
13
6.675
23
0.075
33
9.925
0
3DFACE
8
0
62
252
10
0.15
20
0.0
30
9.85
11
6.6
21
0.0
31
9.85
12
0.075
22
0.075
32
9.925
13
0.075
23
0.075
33
9.925
0
3DFACE
8
0
62
252
10
6.6
20
9.91621
30
10
11
6.6
21
0.15
31
10
12
6.675
22
0.075
32
9.925
13
6.675
23
0.075
33
9.925
0
3DFACE
8
0
62
252
10
6.75
20
10.0471
30
9.85
11
6.6
21
9.91621
31
10
12
6.675
22
0.075
32
9.925
13
6.675
23
0.075
33
9.925
0
3DFACE
8
0
62
252
10
6.75
20
0.15
30
9.85
11
6.75
21
10.0471
31
9.85
12
6.675
22
0.075
32
9.925
13
6.675
23
0.075
33
9.925
0
3DFACE
8
0
62
252
10
8.4
20
0.15
30
10
11
8.325
21
0.075
31
9.925
12
14.925
22
0.075
32
9.925
13
14.925
23
0.075
33
9.925
0
3DFACE
8
0
62
252
10
14.85
20
0.15
30
10
11
8.4
21
0.15
31
10
12
14.925
22
0.075
32
9.925
13
14.925
23
0.075
33
9.925
0
3DFACE
8
0
62
252
10
14.85
20
0.0
30
9.85
11
14.925
21
0.075
31
9.925
12
8.325
22
0.075
32
9.925
13
8.325
23
0.075
33
9.925
0
3DFACE
8
0
62
252
10
8.4
20
0.0
30
9.85
11
14.85
21
0.0
31
9.85
12
8.325
22
0.075
32
9.925
13
8.325
23
0.075
33
9.925
0
3DFACE
8
0
62
252
10
8.4
20
9.91621
30
10
11
8.25
21
10.0471
31
9.85
12
8.325
22
0.075
32
9.925
13
8.325
23
0.075
33
9.925
0
3DFACE
8
0
62
252
10
8.4
20
0.15
30
10
11
8.4
21
9.91621
31
10
12
8.325
22
0.075
32
9.925
13
8.325
23
0.075
33
9.925
0
3DFACE
8
0
62
252
10
8.25
20
0.15
30
9.85
11
8.325
21
0.075
31
9.925
12
8.25
22
10.0471
32
9.85
13
8.25
23
10.0471
33
9.85
0
3DFACE
8
0
62
252
10
3.50513
20
11.5233
30
9.85
11
4.84524
21
10.4525
31
10
12
5.0154
22
10.5386
32
9.85
13
5.0154
23
10.5386
33
9.85
0
3DFACE
8
0
62
252
10
3.3268
20
11.4826
30
10
11
4.84524
21
10.4525
31
10
12
3.50513
22
11.5233
32
9.85
13
3.50513
23
11.5233
33
9.85
0
3DFACE
8
0
62
252
10
1.6705
20
14.5798
30
9.85
11
2.17983
21
12.9148
31
10
12
2.35557
22
12.9122
32
9.85
13
2.35557
23
12.9122
33
9.85
0
3DFACE
8
0
62
252
10
1.50644
20
14.6217
30
10
11
2.17983
21
12.9148
31
10
12
1.6705
22
14.5798
32
9.85
13
1.6705
23
14.5798
33
9.85
0
3DFACE
8
0
62
252
10
1.89374
20
18.1377
30
9.85
11
1.36657
21
16.4512
31
10
12
1.51178
22
16.3757
32
9.85
13
1.51178
23
16.3757
33
9.85
0
3DFACE
8
0
62
252
10
1.77268
20
18.2406
30
10
11
1.36657
21
16.4512
31
10
12
1.89374
22
18.1377
32
9.85
13
1.89374
23
18.1377
33
9.85
0
3DFACE
8
0
62
252
10
4.09605
20
20.941
30
9.85
11
2.6886
21
19.8305
31
10
12
2.7819
22
19.7067
32
9.85
13
2.7819
23
19.7067
33
9.85
0
3DFACE
8
0
62
252
10
4.03281
20
21.0795
30
10
11
2.6886
21
19.8305
31
10
12
4.09605
22
20.941
32
9.85
13
4.09605
23
20.941
33
9.85
0
3DFACE
8
0
62
252
10
7.5
20
22
30
9.85
11
5.68565
21
21.8763
31
10
12
5.71756
22
21.7291
32
9.85
13
5.71756
23
21.7291
33
9.85
0
3DFACE
8
0
62
252
10
7.5
20
22.15
30
10
11
5.68565
21
21.8763
31
10
12
7.5
22
22
32
9.85
13
7.5
23
22
33
9.85
0
3DFACE
8
0
62
252
10
9.31435
20
21.8763
30
10
11
7.5
21
22.15
31
10
12
7.5
22
22
32
9.85
13
7.5
23
22
33
9.85
0
3DFACE
8
0
62
252
10
10.9039
20
20.941
30
9.85
11
10.9672
21
21.0795
31
10
12
9.28244
22
21.7291
32
9.85
13
9.28244
23
21.7291
33
9.85
0
3DFACE
8
0
62
252
10
12.3114
20
19.8305
30
10
11
10.9672
21
21.0795
31
10
12
10.9039
22
20.941
32
9.85
13
10.9039
23
20.941
33
9.85
0
3DFACE
8
0
62
252
10
13.1063
20
18.1377
30
9.85
11
13.2273
21
18.2406
31
10
12
12.2181
22
19.7067
32
9.85
13
12.2181
23
19.7067
33
9.85
0
3DFACE
8
0
62
252
10
13.6334
20
16.4512
30
10
11
13.2273
21
18.2406
31
10
12
13.1063
22
18.1377
32
9.85
13
13.1063
23
18.1377
33
9.85
0
3DFACE
8
0
62
252
10
13.3295
20
14.5798
30
9.85
11
13.4936
21
14.6217
31
10
12
13.4882
22
16.3757
32
9.85
13
13.4882
23
16.3757
33
9.85
0
3DFACE
8
0
62
252
10
12.8202
20
12.9148
30
10
11
13.4936
21
14.6217
31
10
12
13.3295
22
14.5798
32
9.85
13
13.3295
23
14.5798
33
9.85
0
3DFACE
8
0
62
252
10
11.4949
20
11.5233
30
9.85
11
11.6732
21
11.4826
31
10
12
12.6444
22
12.9122
32
9.85
13
12.6444
23
12.9122
33
9.85
0
3DFACE
8
0
62
252
10
10.1548
20
10.4525
30
10
11
11.6732
21
11.4826
31
10
12
11.4949
22
11.5233
32
9.85
13
11.4949
23
11.5233
33
9.85
0
3DFACE
8
0
62
252
10
8.4
20
9.91621
30
10
11
10.1548
21
10.4525
31
10
12
9.9846
22
10.5386
32
9.85
13
9.9846
23
10.5386
33
9.85
0
3DFACE
8
0
62
252
10
8.25
20
10.0471
30
9.85
11
8.4
21
9.91621
31
10
12
9.9846
22
10.5386
32
9.85
13
9.9846
23
10.5386
33
9.85
0
3DFACE
8
0
62
252
10
9.9846
20
10.5386
30
9.85
11
10.1548
21
10.4525
31
10
12
11.4949
22
11.5233
32
9.85
13
11.4949
23
11.5233
33
9.85
0
3DFACE
8
0
62
252
10
12.8202
20
12.9148
30
10
11
12.6444
21
12.9122
31
9.85
12
11.6732
22
11.4826
32
10
13
11.6732
23
11.4826
33
10
0
3DFACE
8
0
62
252
10
12.6444
20
12.9122
30
9.85
11
12.8202
21
12.9148
31
10
12
13.3295
22
14.5798
32
9.85
13
13.3295
23
14.5798
33
9.85
0
3DFACE
8
0
62
252
10
13.6334
20
16.4512
30
10
11
13.4882
21
16.3757
31
9.85
12
13.4936
22
14.6217
32
10
13
13.4936
23
14.6217
33
10
0
3DFACE
8
0
62
252
10
13.4882
20
16.3757
30
9.85
11
13.6334
21
16.4512
31
10
12
13.1063
22
18.1377
32
9.85
13
13.1063
23
18.1377
33
9.85
0
3DFACE
8
0
62
252
10
12.3114
20
19.8305
30
10
11
12.2181
21
19.7067
31
9.85
12
13.2273
22
18.2406
32
10
13
13.2273
23
18.2406
33
10
0
3DFACE
8
0
62
252
10
12.2181
20
19.7067
30
9.85
11
12.3114
21
19.8305
31
10
12
10.9039
22
20.941
32
9.85
13
10.9039
23
20.941
33
9.85
0
3DFACE
8
0
62
252
10
9.31435
20
21.8763
30
10
11
9.28244
21
21.7291
31
9.85
12
10.9672
22
21.0795
32
10
13
10.9672
23
21.0795
33
10
0
3DFACE
8
0
62
252
10
9.28244
20
21.7291
30
9.85
11
9.31435
21
21.8763
31
10
12
7.5
22
22
32
9.85
13
7.5
23
22
33
9.85
0
3DFACE
8
0
62
252
10
4.03281
20
21.0795
30
10
11
5.71756
21
21.7291
31
9.85
12
5.68565
22
21.8763
32
10
13
5.68565
23
21.8763
33
10
0
3DFACE
8
0
62
252
10
5.71756
20
21.7291
30
9.85
11
4.03281
21
21.0795
31
10
12
4.09605
22
20.941
32
9.85
13
4.09605
23
20.941
33
9.85
0
3DFACE
8
0
62
252
10
1.77268
20
18.2406
30
10
11
2.7819
21
19.7067
31
9.85
12
2.6886
22
19.8305
32
10
13
2.6886
23
19.8305
33
10
0
3DFACE
8
0
62
252
10
2.7819
20
19.7067
30
9.85
11
1.77268
21
18.2406
31
10
12
1.89374
22
18.1377
32
9.85
13
1.89374
23
18.1377
33
9.85
0
3DFACE
8
0
62
252
10
1.50644
20
14.6217
30
10
11
1.51178
21
16.3757
31
9.85
12
1.36657
22
16.4512
32
10
13
1.36657
23
16.4512
33
10
0
3DFACE
8
0
62
252
10
1.51178
20
16.3757
30
9.85
11
1.50644
21
14.6217
31
10
12
1.6705
22
14.5798
32
9.85
13
1.6705
23
14.5798
33
9.85
0
3DFACE
8
0
62
252
10
3.3268
20
11.4826
30
10
11
2.35557
21
12.9122
31
9.85
12
2.17983
22
12.9148
32
10
13
2.17983
23
12.9148
33
10
0
3DFACE
8
0
62
252
10
2.35557
20
12.9122
30
9.85
11
3.3268
21
11.4826
31
10
12
3.50513
22
11.5233
32
9.85
13
3.50513
23
11.5233
33
9.85
0
3DFACE
8
0
62
252
10
6.6
20
9.91621
30
10
11
5.0154
21
10.5386
31
9.85
12
4.84524
22
10.4525
32
10
13
4.84524
23
10.4525
33
10
0
3DFACE
8
0
62
252
10
6.75
20
10.0471
30
9.85
11
5.0154
21
10.5386
31
9.85
12
6.6
22
9.91621
32
10
13
6.6
23
9.91621
33
10
0
3DFACE
8
0
62
252
10
0.0
20
0.15
30
0.15
11
0.075
21
0.075
31
0.075
12
0.075
22
0.075
32
9.925
13
0.075
23
0.075
33
9.925
0
3DFACE
8
0
62
252
10
0.0
20
0.15
30
9.85
11
0.0
21
0.15
31
0.15
12
0.075
22
0.075
32
9.925
13
0.075
23
0.075
33
9.925
0
3DFACE
8
0
62
252
10
0.15
20
0.0
30
9.85
11
0.075
21
0.075
31
9.925
12
0.075
22
0.075
32
0.075
13
0.075
23
0.075
33
0.075
0
3DFACE
8
0
62
252
10
0.15
20
0.0
30
0.15
11
0.15
21
0.0
31
9.85
12
0.075
22
0.075
32
0.075
13
0.075
23
0.075
33
0.075
0
3DFACE
8
0
62
252
10
0.0
20
25.0621
30
9.85
11
0.0
21
0.15
31
9.85
12
0.075
22
0.075
32
9.925
13
0.075
23
0.075
33
9.925
0
3DFACE
8
0
62
252
10
0.15
20
25
30
10
11
0.0
21
25.0621
31
9.85
12
0.075
22
0.075
32
9.925
13
0.075
23
0.075
33
9.925
0
3DFACE
8
0
62
252
10
0.15
20
0.15
30
10
11
0.15
21
25
31
10
12
0.075
22
0.075
32
9.925
13
0.075
23
0.075
33
9.925
0
3DFACE
8
0
62
252
10
0.0
20
35.0621
30
19.85
11
0.0
21
25.0621
31
9.85
12
0.15
22
25
32
10
13
0.15
23
25
33
10
0
3DFACE
8
0
62
252
10
0.15
20
35
30
20
11
0.0
21
35.0621
31
19.85
12
0.15
22
25
32
10
13
0.15
23
25
33
10
0
3DFACE
8
0
62
252
10
0.15
20
50
30
19.85
11
14.85
21
50
31
19.85
12
14.85
22
50
32
0.15
13
14.85
23
50
33
0.15
0
3DFACE
8
0
62
252
10
0.15
20
50
30
0.15
11
0.15
21
50
31
19.85
12
14.85
22
50
32
0.15
13
14.85
23
50
33
0.15
0
3DFACE
8
0
62
252
10
0.15
20
25
30
10
11
14.85
21
25
31
10
12
14.85
22
35
32
20
13
14.85
23
35
33
20
0
3DFACE
8
0
62
252
10
0.15
20
35
30
20
11
0.15
21
25
31
10
12
14.85
22
35
32
20
13
14.85
23
35
33
20
0
3DFACE
8
0
62
252
10
0.0
20
6.21487
30
2.47729
11
0.0
21
0.15
31
0.15
12
0.0
22
5
32
2.2
13
0.0
23
5
33
2.2
0
3DFACE
8
0
62
252
10
0.0
20
25.0621
30
9.85
11
0.0
21
6.21487
31
7.52271
12
0.0
22
5
32
7.8
13
0.0
23
5
33
7.8
0
3DFACE
8
0
62
252
10
0.0
20
0.15
30
9.85
11
0.0
21
25.0621
31
9.85
12
0.0
22
5
32
7.8
13
0.0
23
5
33
7.8
0
3DFACE
8
0
62
252
10
0.0
20
49.85
30
0.15
11
0.0
21
0.15
31
0.15
12
0.0
22
6.21487
32
2.47729
13
0.0
23
6.21487
33
2.47729
0
3DFACE
8
0
62
252
10
0.0
20
25.0621
30
9.85
11
0.0
21
35.0621
31
19.85
12
0.0
22
49.85
32
19.85
13
0.0
23
49.85
33
19.85
0
3DFACE
8
0
62
252
10
0.0
20
7.18913
30
6.74577
11
0.0
21
6.21487
31
7.52271
12
0.0
22
25.0621
32
9.85
13
0.0
23
25.0621
33
9.85
0
3DFACE
8
0
62
252
10
0.0
20
7.7298
30
5.62306
11
0.0
21
7.18913
31
6.74577
12
0.0
22
25.0621
32
9.85
13
0.0
23
25.0621
33
9.85
0
3DFACE
8
0
62
252
10
0.0
20
7.7298
30
4.37694
11
0.0
21
7.7298
31
5.62306
12
0.0
22
25.0621
32
9.85
13
0.0
23
25.0621
33
9.85
0
3DFACE
8
0
62
252
10
0.0
20
7.18913
30
3.25423
11
0.0
21
7.7298
31
4.37694
12
0.0
22
25.0621
32
9.85
13
0.0
23
25.0621
33
9.85
0
3DFACE
8
0
62
252
10
0.0
20
49.85
30
0.15
11
0.0
21
25.0621
31
9.85
12
0.0
22
49.85
32
19.85
13
0.0
23
49.85
33
19.85
0
3DFACE
8
0
62
252
10
0.0
20
49.85
30
0.15
11
0.0
21
7.18913
31
3.25423
12
0.0
22
25.0621
32
9.85
13
0.0
23
25.0621
33
9.85
0
3DFACE
8
0
62
252
10
0.0
20
7.18913
30
3.25423
11
0.0
21
49.85
31
0.15
12
0.0
22
6.21487
32
2.47729
13
0.0
23
6.21487
33
2.47729
0
3DFACE
8
0
62
252
10
0.0
20
3.78513
30
2.47729
11
0.0
21
5
31
2.2
12
0.0
22
0.15
32
0.15
13
0.0
23
0.15
33
0.15
0
3DFACE
8
0
62
252
10
0.0
20
2.81087
30
3.25423
11
0.0
21
3.78513
31
2.47729
12
0.0
22
0.15
32
0.15
13
0.0
23
0.15
33
0.15
0
3DFACE
8
0
62
252
10
0.0
20
2.2702
30
4.37694
11
0.0
21
2.81087
31
3.25423
12
0.0
22
0.15
32
0.15
13
0.0
23
0.15
33
0.15
0
3DFACE
8
0
62
252
10
0.0
20
0.15
30
9.85
11
0.0
21
2.2702
31
4.37694
12
0.0
22
0.15
32
0.15
13
0.0
23
0.15
33
0.15
0
3DFACE
8
0
62
252
10
0.0
20
2.2702
30
5.62306
11
0.0
21
2.2702
31
4.37694
12
0.0
22
0.15
32
9.85
13
0.0
23
0.15
33
9.85
0
3DFACE
8
0
62
252
10
0.0
20
2.81087
30
6.74577
11
0.0
21
2.2702
31
5.62306
12
0.0
22
0.15
32
9.85
13
0.0
23
0.15
33
9.85
0
3DFACE
8
0
62
252
10
0.0
20
3.78513
30
7.52271
11
0.0
21
2.81087
31
6.74577
12
0.0
22
0.15
32
9.85
13
0.0
23
0.15
33
9.85
0
3DFACE
8
0
62
252
10
0.0
20
3.78513
30
7.52271
11
0.0
21
0.15
31
9.85
12
0.0
22
5
32
7.8
13
0.0
23
5
33
7.8
0
3DFACE
8
0
62
252
10
15
20
25.0621
30
9.85
11
14.85
21
25
31
10
12
14.925
22
0.075
32
9.925
13
14.925
23
0.075
33
9.925
0
3DFACE
8
0
62
252
10
15
20
0.15
30
9.85
11
15
21
25.0621
31
9.85
12
14.925
22
0.075
32
9.925
13
14.925
23
0.075
33
9.925
0
3DFACE
8
0
62
252
10
14.85
20
0.15
30
10
11
14.925
21
0.075
31
9.925
12
14.85
22
25
32
10
13
14.85
23
25
33
10
0
3DFACE
8
0
62
252
10
15
20
35.0621
30
19.85
11
14.85
21
35
31
20
12
14.85
22
25
32
10
13
14.85
23
25
33
10
0
3DFACE
8
0
62
252
10
15
20
25.0621
30
9.85
11
15
21
35.0621
31
19.85
12
14.85
22
25
32
10
13
14.85
23
25
33
10
0
3DFACE
8
0
62
252
10
15
20
35.0621
30
19.85
11
15
21
49.85
31
19.85
12
14.925
22
49.925
32
19.925
13
14.925
23
49.925
33
19.925
0
3DFACE
8
0
62
252
10
14.85
20
35
30
20
11
15
21
35.0621
31
19.85
12
14.925
22
49.925
32
19.925
13
14.925
23
49.925
33
19.925
0
3DFACE
8
0
62
252
10
14.85
20
49.85
30
20
11
14.85
21
35
31
20
12
14.925
22
49.925
32
19.925
13
14.925
23
49.925
33
19.925
0
3DFACE
8
0
62
252
10
15
20
49.85
30
0.15
11
14.925
21
49.925
31
0.075
12
14.925
22
49.925
32
19.925
13
14.925
23
49.925
33
19.925
0
3DFACE
8
0
62
252
10
15
20
49.85
30
19.85
11
15
21
49.85
31
0.15
12
14.925
22
49.925
32
19.925
13
14.925
23
49.925
33
19.925
0
3DFACE
8
0
62
252
10
14.85
20
50
30
19.85
11
14.925
21
49.925
31
19.925
12
14.925
22
49.925
32
0.075
13
14.925
23
49.925
33
0.075
0
3DFACE
8
0
62
252
10
14.85
20
50
30
0.15
11
14.85
21
50
31
19.85
12
14.925
22
49.925
32
0.075
13
14.925
23
49.925
33
0.075
0
3DFACE
8
0
62
252
10
10.1548
20
10.4525
30
10
11
8.4
21
0.15
31
10
12
14.85
22
0.15
32
10
13
14.85
23
0.15
33
10
0
3DFACE
8
0
62
252
10
11.6732
20
11.4826
30
10
11
10.1548
21
10.4525
31
10
12
14.85
22
0.15
32
10
13
14.85
23
0.15
33
10
0
3DFACE
8
0
62
252
10
12.8202
20
12.9148
30
10
11
11.6732
21
11.4826
31
10
12
14.85
22
0.15
32
10
13
14.85
23
0.15
33
10
0
3DFACE
8
0
62
252
10
13.4936
20
14.6217
30
10
11
12.8202
21
12.9148
31
10
12
14.85
22
0.15
32
10
13
14.85
23
0.15
33
10
0
3DFACE
8
0
62
252
10
13.6334
20
16.4512
30
10
11
13.4936
21
14.6217
31
10
12
14.85
22
0.15
32
10
13
14.85
23
0.15
33
10
0
3DFACE
8
0
62
252
10
13.2273
20
18.2406
30
10
11
13.6334
21
16.4512
31
10
12
14.85
22
25
32
10
13
14.85
23
25
33
10
0
3DFACE
8
0
62
252
10
12.3114
20
19.8305
30
10
11
13.2273
21
18.2406
31
10
12
14.85
22
25
32
10
13
14.85
23
25
33
10
0
3DFACE
8
0
62
252
10
10.9672
20
21.0795
30
10
11
12.3114
21
19.8305
31
10
12
14.85
22
25
32
10
13
14.85
23
25
33
10
0
3DFACE
8
0
62
252
10
9.31435
20
21.8763
30
10
11
10.9672
21
21.0795
31
10
12
14.85
22
25
32
10
13
14.85
23
25
33
10
0
3DFACE
8
0
62
252
10
7.5
20
22.15
30
10
11
9.31435
21
21.8763
31
10
12
14.85
22
25
32
10
13
14.85
23
25
33
10
0
3DFACE
8
0
62
252
10
5.68565
20
21.8763
30
10
11
7.5
21
22.15
31
10
12
0.15
22
25
32
10
13
0.15
23
25
33
10
0
3DFACE
8
0
62
252
10
4.03281
20
21.0795
30
10
11
5.68565
21
21.8763
31
10
12
0.15
22
25
32
10
13
0.15
23
25
33
10
0
3DFACE
8
0
62
252
10
2.6886
20
19.8305
30
10
11
4.03281
21
21.0795
31
10
12
0.15
22
25
32
10
13
0.15
23
25
33
10
0
3DFACE
8
0
62
252
10
1.77268
20
18.2406
30
10
11
2.6886
21
19.8305
31
10
12
0.15
22
25
32
10
13
0.15
23
25
33
10
0
3DFACE
8
0
62
252
10
1.36657
20
16.4512
30
10
11
1.77268
21
18.2406
31
10
12
0.15
22
25
32
10
13
0.15
23
25
33
10
0
3DFACE
8
0
62
252
10
1.50644
20
14.6217
30
10
11
1.36657
21
16.4512
31
10
12
0.15
22
0.15
32
10
13
0.15
23
0.15
33
10
0
3DFACE
8
0
62
252
10
2.17983
20
12.9148
30
10
11
1.50644
21
14.6217
31
10
12
0.15
22
0.15
32
10
13
0.15
23
0.15
33
10
0
3DFACE
8
0
62
252
10
3.3268
20
11.4826
30
10
11
2.17983
21
12.9148
31
10
12
0.15
22
0.15
32
10
13
0.15
23
0.15
33
10
0
3DFACE
8
0
62
252
10
4.84524
20
10.4525
30
10
11
3.3268
21
11.4826
31
10
12
0.15
22
0.15
32
10
13
0.15
23
0.15
33
10
0
3DFACE
8
0
62
252
10
6.6
20
0.15
30
10
11
6.6
21
9.91621
31
10
12
4.84524
22
10.4525
32
10
13
4.84524
23
10.4525
33
10
0
3DFACE
8
0
62
252
10
6.6
20
0.15
30
10
11
4.84524
21
10.4525
31
10
12
0.15
22
0.15
32
10
13
0.15
23
0.15
33
10
0
3DFACE
8
0
62
252
10
0.15
20
0.15
30
10
11
1.36657
21
16.4512
31
10
12
0.15
22
25
32
10
13
0.15
23
25
33
10
0
3DFACE
8
0
62
252
10
0.15
20
25
30
10
11
7.5
21
22.15
31
10
12
14.85
22
25
32
10
13
14.85
23
25
33
10
0
3DFACE
8
0
62
252
10
14.85
20
25
30
10
11
13.6334
21
16.4512
31
10
12
14.85
22
0.15
32
10
13
14.85
23
0.15
33
10
0
3DFACE
8
0
62
252
10
8.4
20
9.91621
30
10
11
8.4
21
0.15
31
10
12
10.1548
22
10.4525
32
10
13
10.1548
23
10.4525
33
10
0
3DFACE
8
0
62
252
10
15
20
6.21487
30
2.47729
11
15
21
49.85
31
0.15
12
15
22
7.18913
32
3.25423
13
15
23
7.18913
33
3.25423
0
3DFACE
8
0
62
252
10
15
20
5
30
7.8
11
15
21
0.15
31
9.85
12
15
22
3.78513
32
7.52271
13
15
23
3.78513
33
7.52271
0
3DFACE
8
0
62
252
10
15
20
0.15
30
0.15
11
15
21
49.85
31
0.15
12
15
22
6.21487
32
2.47729
13
15
23
6.21487
33
2.47729
0
3DFACE
8
0
62
252
10
15
20
25.0621
30
9.85
11
15
21
0.15
31
9.85
12
15
22
5
32
7.8
13
15
23
5
33
7.8
0
3DFACE
8
0
62
252
10
15
20
2.81087
30
6.74577
11
15
21
3.78513
31
7.52271
12
15
22
0.15
32
9.85
13
15
23
0.15
33
9.85
0
3DFACE
8
0
62
252
10
15
20
2.2702
30
5.62306
11
15
21
2.81087
31
6.74577
12
15
22
0.15
32
9.85
13
15
23
0.15
33
9.85
0
3DFACE
8
0
62
252
10
15
20
0.15
30
0.15
11
15
21
2.2702
31
5.62306
12
15
22
0.15
32
9.85
13
15
23
0.15
33
9.85
0
3DFACE
8
0
62
252
10
15
20
2.2702
30
4.37694
11
15
21
2.2702
31
5.62306
12
15
22
0.15
32
0.15
13
15
23
0.15
33
0.15
0
3DFACE
8
0
62
252
10
15
20
2.81087
30
3.25423
11
15
21
2.2702
31
4.37694
12
15
22
0.15
32
0.15
13
15
23
0.15
33
0.15
0
3DFACE
8
0
62
252
10
15
20
3.78513
30
2.47729
11
15
21
2.81087
31
3.25423
12
15
22
0.15
32
0.15
13
15
23
0.15
33
0.15
0
3DFACE
8
0
62
252
10
15
20
5
30
2.2
11
15
21
3.78513
31
2.47729
12
15
22
0.15
32
0.15
13
15
23
0.15
33
0.15
0
3DFACE
8
0
62
252
10
15
20
5
30
2.2
11
15
21
0.15
31
0.15
12
15
22
6.21487
32
2.47729
13
15
23
6.21487
33
2.47729
0
3DFACE
8
0
62
252
10
15
20
25.0621
30
9.85
11
15
21
49.85
31
19.85
12
15
22
35.0621
32
19.85
13
15
23
35.0621
33
19.85
0
3DFACE
8
0
62
252
10
15
20
25.0621
30
9.85
11
15
21
49.85
31
0.15
12
15
22
49.85
32
19.85
13
15
23
49.85
33
19.85
0
3DFACE
8
0
62
252
10
15
20
25.0621
30
9.85
11
15
21
7.18913
31
3.25423
12
15
22
49.85
32
0.15
13
15
23
49.85
33
0.15
0
3DFACE
8
0
62
252
10
15
20
7.7298
30
4.37694
11
15
21
7.18913
31
3.25423
12
15
22
25.0621
32
9.85
13
15
23
25.0621
33
9.85
0
3DFACE
8
0
62
252
10
15
20
7.7298
30
5.62306
11
15
21
7.7298
31
4.37694
12
15
22
25.0621
32
9.85
13
15
23
25.0621
33
9.85
0
3DFACE
8
0
62
252
10
15
20
7.18913
30
6.74577
11
15
21
7.7298
31
5.62306
12
15
22
25.0621
32
9.85
13
15
23
25.0621
33
9.85
0
3DFACE
8
0
62
252
10
15
20
6.21487
30
7.52271
11
15
21
7.18913
31
6.74577
12
15
22
25.0621
32
9.85
13
15
23
25.0621
33
9.85
0
3DFACE
8
0
62
252
10
15
20
6.21487
30
7.52271
11
15
21
25.0621
31
9.85
12
15
22
5
32
7.8
13
15
23
5
33
7.8
0
3DFACE
8
0
62
252
10
14.7
20
5
30
7.5
11
15
21
5
31
7.8
12
15
22
3.78513
32
7.52271
13
15
23
3.78513
33
7.52271
0
3DFACE
8
0
62
252
10
14.7
20
7.05746
30
6.42016
11
15
21
7.18913
31
6.74577
12
14.7
22
6.16181
32
7.21364
13
14.7
23
6.16181
33
7.21364
0
3DFACE
8
0
62
252
10
15
20
7.7298
30
5.62306
11
15
21
7.18913
31
6.74577
12
14.7
22
7.05746
32
6.42016
13
14.7
23
7.05746
33
6.42016
0
3DFACE
8
0
62
252
10
14.7
20
7.33754
30
4.11349
11
15
21
7.7298
31
4.37694
12
14.7
22
7.48177
32
5.30134
13
14.7
23
7.48177
33
5.30134
0
3DFACE
8
0
62
252
10
15
20
7.18913
30
3.25423
11
15
21
7.7298
31
4.37694
12
14.7
22
7.33754
32
4.11349
13
14.7
23
7.33754
33
4.11349
0
3DFACE
8
0
62
252
10
14.7
20
5.59829
30
2.57265
11
15
21
6.21487
31
2.47729
12
14.7
22
6.65781
32
3.12872
13
14.7
23
6.65781
33
3.12872
0
3DFACE
8
0
62
252
10
15
20
5
30
2.2
11
15
21
6.21487
31
2.47729
12
14.7
22
5.59829
32
2.57265
13
14.7
23
5.59829
33
2.57265
0
3DFACE
8
0
62
252
10
14.7
20
3.34219
30
3.12872
11
15
21
3.78513
31
2.47729
12
14.7
22
4.40171
32
2.57265
13
14.7
23
4.40171
33
2.57265
0
3DFACE
8
0
62
252
10
15
20
2.81087
30
3.25423
11
15
21
3.78513
31
2.47729
12
14.7
22
3.34219
32
3.12872
13
14.7
23
3.34219
33
3.12872
0
3DFACE
8
0
62
252
10
14.7
20
2.51823
30
5.30134
11
15
21
2.2702
31
4.37694
12
14.7
22
2.66246
32
4.11349
13
14.7
23
2.66246
33
4.11349
0
3DFACE
8
0
62
252
10
15
20
2.2702
30
5.62306
11
15
21
2.2702
31
4.37694
12
14.7
22
2.51823
32
5.30134
13
14.7
23
2.51823
33
5.30134
0
3DFACE
8
0
62
252
10
14.7
20
3.83819
30
7.21364
11
15
21
2.81087
31
6.74577
12
14.7
22
2.94254
32
6.42016
13
14.7
23
2.94254
33
6.42016
0
3DFACE
8
0
62
252
10
15
20
3.78513
30
7.52271
11
15
21
2.81087
31
6.74577
12
14.7
22
3.83819
32
7.21364
13
14.7
23
3.83819
33
7.21364
0
3DFACE
8
0
62
252
10
15
20
6.21487
30
7.52271
11
15
21
5
31
7.8
12
14.7
22
5
32
7.5
13
14.7
23
5
33
7.5
0
3DFACE
8
0
62
252
10
14.7
20
5
30
7.5
11
15
21
3.78513
31
7.52271
12
14.7
22
3.83819
32
7.21364
13
14.7
23
3.83819
33
7.21364
0
3DFACE
8
0
62
252
10
15
20
2.2702
30
5.62306
11
14.7
21
2.94254
31
6.42016
12
15
22
2.81087
32
6.74577
13
15
23
2.81087
33
6.74577
0
3DFACE
8
0
62
252
10
14.7
20
2.94254
30
6.42016
11
15
21
2.2702
31
5.62306
12
14.7
22
2.51823
32
5.30134
13
14.7
23
2.51823
33
5.30134
0
3DFACE
8
0
62
252
10
15
20
2.81087
30
3.25423
11
14.7
21
2.66246
31
4.11349
12
15
22
2.2702
32
4.37694
13
15
23
2.2702
33
4.37694
0
3DFACE
8
0
62
252
10
14.7
20
2.66246
30
4.11349
11
15
21
2.81087
31
3.25423
12
14.7
22
3.34219
32
3.12872
13
14.7
23
3.34219
33
3.12872
0
3DFACE
8
0
62
252
10
15
20
5
30
2.2
11
14.7
21
4.40171
31
2.57265
12
15
22
3.78513
32
2.47729
13
15
23
3.78513
33
2.47729
0
3DFACE
8
0
62
252
10
14.7
20
4.40171
30
2.57265
11
15
21
5
31
2.2
12
14.7
22
5.59829
32
2.57265
13
14.7
23
5.59829
33
2.57265
0
3DFACE
8
0
62
252
10
15
20
7.18913
30
3.25423
11
14.7
21
6.65781
31
3.12872
12
15
22
6.21487
32
2.47729
13
15
23
6.21487
33
2.47729
0
3DFACE
8
0
62
252
10
14.7
20
6.65781
30
3.12872
11
15
21
7.18913
31
3.25423
12
14.7
22
7.33754
32
4.11349
13
14.7
23
7.33754
33
4.11349
0
3DFACE
8
0
62
252
10
15
20
7.7298
30
5.62306
11
14.7
21
7.48177
31
5.30134
12
15
22
7.7298
32
4.37694
13
15
23
7.7298
33
4.37694
0
3DFACE
8
0
62
252
10
14.7
20
7.48177
30
5.30134
11
15
21
7.7298
31
5.62306
12
14.7
22
7.05746
32
6.42016
13
14.7
23
7.05746
33
6.42016
0
3DFACE
8
0
62
252
10
15
20
6.21487
30
7.52271
11
14.7
21
6.16181
31
7.21364
12
15
22
7.18913
32
6.74577
13
15
23
7.18913
33
6.74577
0
3DFACE
8
0
62
252
10
14.7
20
6.16181
30
7.21364
11
15
21
6.21487
31
7.52271
12
14.7
22
5
32
7.5
13
14.7
23
5
33
7.5
0
3DFACE
8
0
62
252
10
14.7
20
6.16181
30
7.21364
11
14.7
21
5
31
7.5
12
8.25
22
5
32
7.5
13
8.25
23
5
33
7.5
0
3DFACE
8
0
62
252
10
8.25
20
7.05746
30
6.42016
11
14.7
21
7.05746
31
6.42016
12
8.25
22
6.16181
32
7.21364
13
8.25
23
6.16181
33
7.21364
0
3DFACE
8
0
62
252
10
14.7
20
7.48177
30
5.30134
11
14.7
21
7.05746
31
6.42016
12
8.25
22
7.05746
32
6.42016
13
8.25
23
7.05746
33
6.42016
0
3DFACE
8
0
62
252
10
8.25
20
7.33754
30
4.11349
11
14.7
21
7.33754
31
4.11349
12
8.25
22
7.48177
32
5.30134
13
8.25
23
7.48177
33
5.30134
0
3DFACE
8
0
62
252
10
14.7
20
6.65781
30
3.12872
11
14.7
21
7.33754
31
4.11349
12
8.25
22
7.33754
32
4.11349
13
8.25
23
7.33754
33
4.11349
0
3DFACE
8
0
62
252
10
8.25
20
5.59829
30
2.57265
11
14.7
21
5.59829
31
2.57265
12
8.25
22
6.65781
32
3.12872
13
8.25
23
6.65781
33
3.12872
0
3DFACE
8
0
62
252
10
14.7
20
4.40171
30
2.57265
11
14.7
21
5.59829
31
2.57265
12
8.25
22
5.59829
32
2.57265
13
8.25
23
5.59829
33
2.57265
0
3DFACE
8
0
62
252
10
8.25
20
3.34219
30
3.12872
11
14.7
21
3.34219
31
3.12872
12
8.25
22
4.40171
32
2.57265
13
8.25
23
4.40171
33
2.57265
0
3DFACE
8
0
62
252
10
14.7
20
2.66246
30
4.11349
11
14.7
21
3.34219
31
3.12872
12
8.25
22
3.34219
32
3.12872
13
8.25
23
3.34219
33
3.12872
0
3DFACE
8
0
62
252
10
8.25
20
2.51823
30
5.30134
11
14.7
21
2.51823
31
5.30134
12
8.25
22
2.66246
32
4.11349
13
8.25
23
2.66246
33
4.11349
0
3DFACE
8
0
62
252
10
14.7
20
2.94254
30
6.42016
11
14.7
21
2.51823
31
5.30134
12
8.25
22
2.51823
32
5.30134
13
8.25
23
2.51823
33
5.30134
0
3DFACE
8
0
62
252
10
8.25
20
3.83819
30
7.21364
11
14.7
21
3.83819
31
7.21364
12
8.25
22
2.94254
32
6.42016
13
8.25
23
2.94254
33
6.42016
0
3DFACE
8
0
62
252
10
14.7
20
5
30
7.5
11
14.7
21
3.83819
31
7.21364
12
8.25
22
3.83819
32
7.21364
13
8.25
23
3.83819
33
7.21364
0
3DFACE
8
0
62
252
10
8.25
20
5
30
7.5
11
14.7
21
5
31
7.5
12
8.25
22
3.83819
32
7.21364
13
8.25
23
3.83819
33
7.21364
0
3DFACE
8
0
62
252
10
14.7
20
2.94254
30
6.42016
11
8.25
21
2.94254
31
6.42016
12
14.7
22
3.83819
32
7.21364
13
14.7
23
3.83819
33
7.21364
0
3DFACE
8
0
62
252
10
8.25
20
2.94254
30
6.42016
11
14.7
21
2.94254
31
6.42016
12
8.25
22
2.51823
32
5.30134
13
8.25
23
2.51823
33
5.30134
0
3DFACE
8
0
62
252
10
14.7
20
2.66246
30
4.11349
11
8.25
21
2.66246
31
4.11349
12
14.7
22
2.51823
32
5.30134
13
14.7
23
2.51823
33
5.30134
0
3DFACE
8
0
62
252
10
8.25
20
2.66246
30
4.11349
11
14.7
21
2.66246
31
4.11349
12
8.25
22
3.34219
32
3.12872
13
8.25
23
3.34219
33
3.12872
0
3DFACE
8
0
62
252
10
14.7
20
4.40171
30
2.57265
11
8.25
21
4.40171
31
2.57265
12
14.7
22
3.34219
32
3.12872
13
14.7
23
3.34219
33
3.12872
0
3DFACE
8
0
62
252
10
8.25
20
4.40171
30
2.57265
11
14.7
21
4.40171
31
2.57265
12
8.25
22
5.59829
32
2.57265
13
8.25
23
5.59829
33
2.57265
0
3DFACE
8
0
62
252
10
14.7
20
6.65781
30
3.12872
11
8.25
21
6.65781
31
3.12872
12
14.7
22
5.59829
32
2.57265
13
14.7
23
5.59829
33
2.57265
0
3DFACE
8
0
62
252
10
8.25
20
6.65781
30
3.12872
11
14.7
21
6.65781
31
3.12872
12
8.25
22
7.33754
32
4.11349
13
8.25
23
7.33754
33
4.11349
0
3DFACE
8
0
62
252
10
14.7
20
7.48177
30
5.30134
11
8.25
21
7.48177
31
5.30134
12
14.7
22
7.33754
32
4.11349
13
14.7
23
7.33754
33
4.11349
0
3DFACE
8
0
62
252
10
8.25
20
7.48177
30
5.30134
11
14.7
21
7.48177
31
5.30134
12
8.25
22
7.05746
32
6.42016
13
8.25
23
7.05746
33
6.42016
0
3DFACE
8
0
62
252
10
14.7
20
6.16181
30
7.21364
11
8.25
21
6.16181
31
7.21364
12
14.7
22
7.05746
32
6.42016
13
14.7
23
7.05746
33
6.42016
0
3DFACE
8
0
62
252
10
8.25
20
6.16181
30
7.21364
11
14.7
21
6.16181
31
7.21364
12
8.25
22
5
32
7.5
13
8.25
23
5
33
7.5
0
3DFACE
8
0
62
252
10
0.3
20
5
30
7.5
11
0.0
21
5
31
7.8
12
0.0
22
6.21487
32
7.52271
13
0.0
23
6.21487
33
7.52271
0
3DFACE
8
0
62
252
10
0.3
20
2.94254
30
6.42016
11
0.0
21
2.81087
31
6.74577
12
0.3
22
3.83819
32
7.21364
13
0.3
23
3.83819
33
7.21364
0
3DFACE
8
0
62
252
10
0.0
20
2.2702
30
5.62306
11
0.0
21
2.81087
31
6.74577
12
0.3
22
2.94254
32
6.42016
13
0.3
23
2.94254
33
6.42016
0
3DFACE
8
0
62
252
10
0.3
20
2.66246
30
4.11349
11
0.0
21
2.2702
31
4.37694
12
0.3
22
2.51823
32
5.30134
13
0.3
23
2.51823
33
5.30134
0
3DFACE
8
0
62
252
10
0.0
20
2.81087
30
3.25423
11
0.0
21
2.2702
31
4.37694
12
0.3
22
2.66246
32
4.11349
13
0.3
23
2.66246
33
4.11349
0
3DFACE
8
0
62
252
10
0.3
20
4.40171
30
2.57265
11
0.0
21
3.78513
31
2.47729
12
0.3
22
3.34219
32
3.12872
13
0.3
23
3.34219
33
3.12872
0
3DFACE
8
0
62
252
10
0.0
20
5
30
2.2
11
0.0
21
3.78513
31
2.47729
12
0.3
22
4.40171
32
2.57265
13
0.3
23
4.40171
33
2.57265
0
3DFACE
8
0
62
252
10
0.3
20
6.65781
30
3.12872
11
0.0
21
6.21487
31
2.47729
12
0.3
22
5.59829
32
2.57265
13
0.3
23
5.59829
33
2.57265
0
3DFACE
8
0
62
252
10
0.0
20
7.18913
30
3.25423
11
0.0
21
6.21487
31
2.47729
12
0.3
22
6.65781
32
3.12872
13
0.3
23
6.65781
33
3.12872
0
3DFACE
8
0
62
252
10
0.3
20
7.48177
30
5.30134
11
0.0
21
7.7298
31
4.37694
12
0.3
22
7.33754
32
4.11349
13
0.3
23
7.33754
33
4.11349
0
3DFACE
8
0
62
252
10
0.0
20
7.7298
30
5.62306
11
0.0
21
7.7298
31
4.37694
12
0.3
22
7.48177
32
5.30134
13
0.3
23
7.48177
33
5.30134
0
3DFACE
8
0
62
252
10
0.3
20
6.16181
30
7.21364
11
0.0
21
7.18913
31
6.74577
12
0.3
22
7.05746
32
6.42016
13
0.3
23
7.05746
33
6.42016
0
3DFACE
8
0
62
252
10
0.0
20
6.21487
30
7.52271
11
0.0
21
7.18913
31
6.74577
12
0.3
22
6.16181
32
7.21364
13
0.3
23
6.16181
33
7.21364
0
3DFACE
8
0
62
252
10
0.0
20
3.78513
30
7.52271
11
0.0
21
5
31
7.8
12
0.3
22
5
32
7.5
13
0.3
23
5
33
7.5
0
3DFACE
8
0
62
252
10
0.3
20
5
30
7.5
11
0.0
21
6.21487
31
7.52271
12
0.3
22
6.16181
32
7.21364
13
0.3
23
6.16181
33
7.21364
0
3DFACE
8
0
62
252
10
0.0
20
7.7298
30
5.62306
11
0.3
21
7.05746
31
6.42016
12
0.0
22
7.18913
32
6.74577
13
0.0
23
7.18913
33
6.74577
0
3DFACE
8
0
62
252
10
0.3
20
7.05746
30
6.42016
11
0.0
21
7.7298
31
5.62306
12
0.3
22
7.48177
32
5.30134
13
0.3
23
7.48177
33
5.30134
0
3DFACE
8
0
62
252
10
0.0
20
7.18913
30
3.25423
11
0.3
21
7.33754
31
4.11349
12
0.0
22
7.7298
32
4.37694
13
0.0
23
7.7298
33
4.37694
0
3DFACE
8
0
62
252
10
0.3
20
7.33754
30
4.11349
11
0.0
21
7.18913
31
3.25423
12
0.3
22
6.65781
32
3.12872
13
0.3
23
6.65781
33
3.12872
0
3DFACE
8
0
62
252
10
0.0
20
5
30
2.2
11
0.3
21
5.59829
31
2.57265
12
0.0
22
6.21487
32
2.47729
13
0.0
23
6.21487
33
2.47729
0
3DFACE
8
0
62
252
10
0.3
20
5.59829
30
2.57265
11
0.0
21
5
31
2.2
12
0.3
22
4.40171
32
2.57265
13
0.3
23
4.40171
33
2.57265
0
3DFACE
8
0
62
252
10
0.0
20
2.81087
30
3.25423
11
0.3
21
3.34219
31
3.12872
12
0.0
22
3.78513
32
2.47729
13
0.0
23
3.78513
33
2.47729
0
3DFACE
8
0
62
252
10
0.3
20
3.34219
30
3.12872
11
0.0
21
2.81087
31
3.25423
12
0.3
22
2.66246
32
4.11349
13
0.3
23
2.66246
33
4.11349
0
3DFACE
8
0
62
252
10
0.0
20
2.2702
30
5.62306
11
0.3
21
2.51823
31
5.30134
12
0.0
22
2.2702
32
4.37694
13
0.0
23
2.2702
33
4.37694
0
3DFACE
8
0
62
252
10
0.3
20
2.51823
30
5.30134
11
0.0
21
2.2702
31
5.62306
12
0.3
22
2.94254
32
6.42016
13
0.3
23
2.94254
33
6.42016
0
3DFACE
8
0
62
252
10
0.0
20
3.78513
30
7.52271
11
0.3
21
3.83819
31
7.21364
12
0.0
22
2.81087
32
6.74577
13
0.0
23
2.81087
33
6.74577
0
3DFACE
8
0
62
252
10
0.3
20
3.83819
30
7.21364
11
0.0
21
3.78513
31
7.52271
12
0.3
22
5
32
7.5
13
0.3
23
5
33
7.5
0
3DFACE
8
0
62
252
10
0.3
20
3.83819
30
7.21364
11
0.3
21
5
31
7.5
12
6.75
22
5
32
7.5
13
6.75
23
5
33
7.5
0
3DFACE
8
0
62
252
10
6.75
20
2.94254
30
6.42016
11
0.3
21
2.94254
31
6.42016
12
6.75
22
3.83819
32
7.21364
13
6.75
23
3.83819
33
7.21364
0
3DFACE
8
0
62
252
10
0.3
20
2.51823
30
5.30134
11
0.3
21
2.94254
31
6.42016
12
6.75
22
2.94254
32
6.42016
13
6.75
23
2.94254
33
6.42016
0
3DFACE
8
0
62
252
10
6.75
20
2.66246
30
4.11349
11
0.3
21
2.66246
31
4.11349
12
6.75
22
2.51823
32
5.30134
13
6.75
23
2.51823
33
5.30134
0
3DFACE
8
0
62
252
10
0.3
20
3.34219
30
3.12872
11
0.3
21
2.66246
31
4.11349
12
6.75
22
2.66246
32
4.11349
13
6.75
23
2.66246
33
4.11349
0
3DFACE
8
0
62
252
10
6.75
20
4.40171
30
2.57265
11
0.3
21
4.40171
31
2.57265
12
6.75
22
3.34219
32
3.12872
13
6.75
23
3.34219
33
3.12872
0
3DFACE
8
0
62
252
10
0.3
20
5.59829
30
2.57265
11
0.3
21
4.40171
31
2.57265
12
6.75
22
4.40171
32
2.57265
13
6.75
23
4.40171
33
2.57265
0
3DFACE
8
0
62
252
10
6.75
20
6.65781
30
3.12872
11
0.3
21
6.65781
31
3.12872
12
6.75
22
5.59829
32
2.57265
13
6.75
23
5.59829
33
2.57265
0
3DFACE
8
0
62
252
10
0.3
20
7.33754
30
4.11349
11
0.3
21
6.65781
31
3.12872
12
6.75
22
6.65781
32
3.12872
13
6.75
23
6.65781
33
3.12872
0
3DFACE
8
0
62
252
10
6.75
20
7.48177
30
5.30134
11
0.3
21
7.48177
31
5.30134
12
6.75
22
7.33754
32
4.11349
13
6.75
23
7.33754
33
4.11349
0
3DFACE
8
0
62
252
10
0.3
20
7.05746
30
6.42016
11
0.3
21
7.48177
31
5.30134
12
6.75
22
7.48177
32
5.30134
13
6.75
23
7.48177
33
5.30134
0
3DFACE
8
0
62
252
10
6.75
20
6.16181
30
7.21364
11
0.3
21
6.16181
31
7.21364
12
6.75
22
7.05746
32
6.42016
13
6.75
23
7.05746
33
6.42016
0
3DFACE
8
0
62
252
10
0.3
20
5
30
7.5
11
0.3
21
6.16181
31
7.21364
12
6.75
22
6.16181
32
7.21364
13
6.75
23
6.16181
33
7.21364
0
3DFACE
8
0
62
252
10
6.75
20
5
30
7.5
11
0.3
21
5
31
7.5
12
6.75
22
6.16181
32
7.21364
13
6.75
23
6.16181
33
7.21364
0
3DFACE
8
0
62
252
10
0.3
20
7.05746
30
6.42016
11
6.75
21
7.05746
31
6.42016
12
0.3
22
6.16181
32
7.21364
13
0.3
23
6.16181
33
7.21364
0
3DFACE
8
0
62
252
10
6.75
20
7.05746
30
6.42016
11
0.3
21
7.05746
31
6.42016
12
6.75
22
7.48177
32
5.30134
13
6.75
23
7.48177
33
5.30134
0
3DFACE
8
0
62
252
10
0.3
20
7.33754
30
4.11349
11
6.75
21
7.33754
31
4.11349
12
0.3
22
7.48177
32
5.30134
13
0.3
23
7.48177
33
5.30134
0
3DFACE
8
0
62
252
10
6.75
20
7.33754
30
4.11349
11
0.3
21
7.33754
31
4.11349
12
6.75
22
6.65781
32
3.12872
13
6.75
23
6.65781
33
3.12872
0
3DFACE
8
0
62
252
10
0.3
20
5.59829
30
2.57265
11
6.75
21
5.59829
31
2.57265
12
0.3
22
6.65781
32
3.12872
13
0.3
23
6.65781
33
3.12872
0
3DFACE
8
0
62
252
10
6.75
20
5.59829
30
2.57265
11
0.3
21
5.59829
31
2.57265
12
6.75
22
4.40171
32
2.57265
13
6.75
23
4.40171
33
2.57265
0
3DFACE
8
0
62
252
10
0.3
20
3.34219
30
3.12872
11
6.75
21
3.34219
31
3.12872
12
0.3
22
4.40171
32
2.57265
13
0.3
23
4.40171
33
2.57265
0
3DFACE
8
0
62
252
10
6.75
20
3.34219
30
3.12872
11
0.3
21
3.34219
31
3.12872
12
6.75
22
2.66246
32
4.11349
13
6.75
23
2.66246
33
4.11349
0
3DFACE
8
0
62
252
10
0.3
20
2.51823
30
5.30134
11
6.75
21
2.51823
31
5.30134
12
0.3
22
2.66246
32
4.11349
13
0.3
23
2.66246
33
4.11349
0
3DFACE
8
0
62
252
10
6.75
20
2.51823
30
5.30134
11
0.3
21
2.51823
31
5.30134
12
6.75
22
2.94254
32
6.42016
13
6.75
23
2.94254
33
6.42016
0
3DFACE
8
0
62
252
10
0.3
20
3.83819
30
7.21364
11
6.75
21
3.83819
31
7.21364
12
0.3
22
2.94254
32
6.42016
13
0.3
23
2.94254
33
6.42016
0
3DFACE
8
0
62
252
10
6.75
20
3.83819
30
7.21364
11
0.3
21
3.83819
31
7.21364
12
6.75
22
5
32
7.5
13
6.75
23
5
33
7.5
0
ENDSEC
0
EOF
