  0
SECTION
  2
HEADER
  9
$ACADVER
  1
AC1009
  9
$INSBASE
 10
0.0
 20
0.0
 30
0.0
  9
$EXTMIN
 10
0.0
 20
0.0
 30
0.0
  9
$EXTMAX
 10
0.0
 20
0.0
 30
0.0
  0
ENDSEC
  0
SECTION
  2
TABLES
  0
TABLE
  2
VPORT
 70
1
  0
VPORT
  2
*ACTIVE
 70
0
 10
0.0
 20
0.0
 11
1.0
 21
1.0
 12
-5.0
 22
1.0
 13
0.0
 23
0.0
 14
0.1
 24
0.1
 15
0.1
 25
0.1
 16
0.0
 26
0.0
 36
1.0
 17
0.0
 27
0.0
 37
0.0
 40
10.0
 41
1.0
 42
50.0
 43
0.0
 44
0.0
 50
0.0
 51
0.0
 71
0
 72
100
 73
1
 74
1
 75
0
 76
0
 77
0
 78
0
  0
ENDTAB
  0
TABLE
  2
LTYPE
 70
8
  0
LTYPE
  2
CONTINUOUS
 70
0
  3
Solid line
 72
65
 73
0
 40
0.0
  0
LTYPE
  2
DOT
 70
0
  3
. . . . . . .
 72
65
 73
2
 40
0.25
 49
0.0
 49
-0.25
  0
LTYPE
  2
DASHED
 70
0
  3
__ __ __ __ __
 72
65
 73
2
 40
0.8
 49
0.5
 49
-0.3
  0
LTYPE
  2
DASHDOT
 70
0
  3
__ . __ . __ .
 72
65
 73
4
 40
1.0
 49
0.5
 49
-0.25
 49
0.0
 49
-0.25
  0
LTYPE
  2
DIVIDE
 70
0
  3
____ . . ____ . . 
 72
65
 73
6
 40
1.25
 49
0.5
 49
-0.25
 49
0.0
 49
-0.25
 49
0.0
 49
-0.25
  0
LTYPE
  2
BORDER
 70
0
  3
__ __ . __ __ . 
 72
65
 73
6
 40
1.75
 49
0.5
 49
-0.25
 49
0.5
 49
-0.25
 49
0.0
 49
-0.25
  0
LTYPE
  2
HIDDEN
 70
0
  3
__ __ __ __ __
 72
65
 73
2
 40
0.4
 49
0.25
 49
-0.25
  0
LTYPE
  2
CENTER
 70
0
  3
____ _ ____ _ __
 72
65
 73
4
 40
2.0
 49
1.25
 49
-0.25
 49
0.25
 49
-0.25
  0
ENDTAB
  0
TABLE
  2
LAYER
 70
1
  0
LAYER
  2
PYDXF
 70
64
 62
7
  6
continuous
  0
ENDTAB
  0
TABLE
  2
STYLE
 70
1
  0
STYLE
  2
STANDARD
 70
0
 40
0
 41
1.0
 50
0.0
 71
0
 42
1
 3
ARIAL.TTF
 4

  0
ENDTAB
  0
TABLE
  2
VIEW
 70
1
  0
VIEW
  2
BF_TOPVIEW
 70
0
 40
120.0
 10
0.0
 20
0.0
 41
200.0
 11
0.0
 21
0.0
 31
1.0
 12
0.0
 22
0.0
 32
0.0
 42
50.0
 43
0.0
 44
0.0
 50
0.0
 71
0
  0
ENDTAB
  0
ENDSEC
  0
SECTION
  2
BLOCKS
  0
ENDSEC
  0
SECTION
  2
ENTITIES
  0
3DFACE
  8
0
 10
0.0
 20
-2.2002127764153556e-07
 30
5.0335001945495605
 11
0.0
 21
14.0
 31
5.033500671386719
 12
0.0
 22
-1.4644232493310483e-09
 32
0.03350209817290306
 13
0.0
 23
-1.4644232493310483e-09
 33
0.03350209817290306
  0
3DFACE
  8
0
 10
0.0
 20
-1.4644232493310483e-09
 30
0.03350209817290306
 11
0.0
 21
14.0
 31
5.033500671386719
 12
0.0
 22
33.0
 32
5.033501625061035
 13
0.0
 23
33.0
 33
5.033501625061035
  0
3DFACE
  8
0
 10
0.0
 20
-1.4644232493310483e-09
 30
0.03350209817290306
 11
0.0
 21
33.0
 31
5.033501625061035
 12
0.0
 22
34.0
 32
0.03350358456373215
 13
0.0
 23
34.0
 33
0.03350358456373215
  0
3DFACE
  8
0
 10
0.0
 20
34.0
 30
0.03350358456373215
 11
0.0
 21
33.0
 31
5.033501625061035
 12
0.0
 22
33.0
 32
16.433502197265625
 13
0.0
 23
33.0
 33
16.433502197265625
  0
3DFACE
  8
0
 10
0.0
 20
34.0
 30
0.03350358456373215
 11
0.0
 21
33.0
 31
16.433502197265625
 12
0.0
 22
33.0
 32
17.03350257873535
 13
0.0
 23
33.0
 33
17.03350257873535
  0
3DFACE
  8
0
 10
0.0
 20
33.0
 30
17.03350257873535
 11
0.0
 21
38.0
 31
17.03350257873535
 12
0.0
 22
37.46419906616211
 32
2.033501625061035
 13
0.0
 23
37.46419906616211
 33
2.033501625061035
  0
3DFACE
  8
0
 10
0.0
 20
33.0
 30
17.03350257873535
 11
0.0
 21
37.46419906616211
 31
2.033501625061035
 12
0.0
 22
36.0
 32
0.569303572177887
 13
0.0
 23
36.0
 33
0.569303572177887
  0
3DFACE
  8
0
 10
0.0
 20
33.0
 30
17.03350257873535
 11
0.0
 21
36.0
 31
0.569303572177887
 12
0.0
 22
34.0
 32
0.03350358456373215
 13
0.0
 23
34.0
 33
0.03350358456373215
  0
3DFACE
  8
0
 10
0.0
 20
37.46419906616211
 30
2.033501625061035
 11
0.0
 21
38.0
 31
17.03350257873535
 12
0.0
 22
38.0
 32
4.033501625061035
 13
0.0
 23
38.0
 33
4.033501625061035
  0
3DFACE
  8
0
 10
28.0
 20
33.0
 30
17.03350257873535
 11
28.0
 21
33.0
 31
16.433502197265625
 12
28.0
 22
34.0
 32
0.03350358456373215
 13
28.0
 23
34.0
 33
0.03350358456373215
  0
3DFACE
  8
0
 10
28.0
 20
34.0
 30
0.03350358456373215
 11
28.0
 21
33.0
 31
16.433502197265625
 12
28.0
 22
33.0
 32
5.033501625061035
 13
28.0
 23
33.0
 33
5.033501625061035
  0
3DFACE
  8
0
 10
28.0
 20
34.0
 30
0.03350358456373215
 11
28.0
 21
33.0
 31
5.033501625061035
 12
28.0
 22
-1.4644232493310483e-09
 32
0.03350209817290306
 13
28.0
 23
-1.4644232493310483e-09
 33
0.03350209817290306
  0
3DFACE
  8
0
 10
28.0
 20
-1.4644232493310483e-09
 30
0.03350209817290306
 11
28.0
 21
33.0
 31
5.033501625061035
 12
28.0
 22
14.0
 32
5.033500671386719
 13
28.0
 23
14.0
 33
5.033500671386719
  0
3DFACE
  8
0
 10
28.0
 20
-1.4644232493310483e-09
 30
0.03350209817290306
 11
28.0
 21
14.0
 31
5.033500671386719
 12
28.0
 22
-2.2002127764153556e-07
 32
5.0335001945495605
 13
28.0
 23
-2.2002127764153556e-07
 33
5.0335001945495605
  0
3DFACE
  8
0
 10
28.0
 20
33.0
 30
17.03350257873535
 11
28.0
 21
34.0
 31
0.03350358456373215
 12
28.0
 22
36.0
 32
0.569303572177887
 13
28.0
 23
36.0
 33
0.569303572177887
  0
3DFACE
  8
0
 10
28.0
 20
33.0
 30
17.03350257873535
 11
28.0
 21
36.0
 31
0.569303572177887
 12
28.0
 22
37.46419906616211
 32
2.033501625061035
 13
28.0
 23
37.46419906616211
 33
2.033501625061035
  0
3DFACE
  8
0
 10
28.0
 20
33.0
 30
17.03350257873535
 11
28.0
 21
37.46419906616211
 31
2.033501625061035
 12
28.0
 22
38.0
 32
4.033501625061035
 13
28.0
 23
38.0
 33
4.033501625061035
  0
3DFACE
  8
0
 10
28.0
 20
33.0
 30
17.03350257873535
 11
28.0
 21
38.0
 31
4.033501625061035
 12
28.0
 22
38.0
 32
17.03350257873535
 13
28.0
 23
38.0
 33
17.03350257873535
  0
3DFACE
  8
0
 10
4.0
 20
32.0
 30
5.033501625061035
 11
9.850000381469727
 21
26.88800048828125
 31
5.033501148223877
 12
11.851799964904785
 22
27.717199325561523
 32
5.033501625061035
 13
11.851799964904785
 23
27.717199325561523
 33
5.033501625061035
  0
3DFACE
  8
0
 10
24.0
 20
32.0
 30
5.033501625061035
 11
14.0
 21
28.0
 31
5.033501625061035
 12
16.1481990814209
 22
27.717199325561523
 32
5.033501625061035
 13
16.1481990814209
 23
27.717199325561523
 33
5.033501625061035
  0
3DFACE
  8
0
 10
24.0
 20
32.0
 30
5.033501625061035
 11
16.1481990814209
 21
27.717199325561523
 31
5.033501625061035
 12
18.149999618530273
 22
26.88800048828125
 32
5.033501148223877
 13
18.149999618530273
 23
26.88800048828125
 33
5.033501148223877
  0
3DFACE
  8
0
 10
24.0
 20
32.0
 30
5.033501625061035
 11
18.149999618530273
 21
26.88800048828125
 31
5.033501148223877
 12
19.868999481201172
 22
25.569000244140625
 32
5.033501148223877
 13
19.868999481201172
 23
25.569000244140625
 33
5.033501148223877
  0
3DFACE
  8
0
 10
24.0
 20
32.0
 30
5.033501625061035
 11
19.868999481201172
 21
25.569000244140625
 31
5.033501148223877
 12
21.187999725341797
 22
23.850000381469727
 32
5.033501148223877
 13
21.187999725341797
 23
23.850000381469727
 33
5.033501148223877
  0
3DFACE
  8
0
 10
24.0
 20
32.0
 30
5.033501625061035
 11
21.187999725341797
 21
23.850000381469727
 31
5.033501148223877
 12
22.017200469970703
 22
21.84819984436035
 32
5.033501148223877
 13
22.017200469970703
 23
21.84819984436035
 33
5.033501148223877
  0
3DFACE
  8
0
 10
24.0
 20
32.0
 30
5.033501625061035
 11
22.017200469970703
 21
21.84819984436035
 31
5.033501148223877
 12
22.299999237060547
 22
19.700000762939453
 32
5.033501148223877
 13
22.299999237060547
 23
19.700000762939453
 33
5.033501148223877
  0
3DFACE
  8
0
 10
24.0
 20
32.0
 30
5.033501625061035
 11
22.299999237060547
 21
19.700000762939453
 31
5.033501148223877
 12
24.0
 22
14.0
 32
5.033500671386719
 13
24.0
 23
14.0
 33
5.033500671386719
  0
3DFACE
  8
0
 10
4.0
 20
14.0
 30
5.033500671386719
 11
5.699999809265137
 21
16.299999237060547
 31
5.033500671386719
 12
4.0
 22
32.0
 32
5.033501625061035
 13
4.0
 23
32.0
 33
5.033501625061035
  0
3DFACE
  8
0
 10
4.0
 20
32.0
 30
5.033501625061035
 11
5.699999809265137
 21
16.299999237060547
 31
5.033500671386719
 12
5.699999809265137
 22
19.700000762939453
 32
5.033501148223877
 13
5.699999809265137
 23
19.700000762939453
 33
5.033501148223877
  0
3DFACE
  8
0
 10
4.0
 20
32.0
 30
5.033501625061035
 11
5.699999809265137
 21
19.700000762939453
 31
5.033501148223877
 12
5.982800006866455
 22
21.84819984436035
 32
5.033501148223877
 13
5.982800006866455
 23
21.84819984436035
 33
5.033501148223877
  0
3DFACE
  8
0
 10
28.0
 20
-2.2002127764153556e-07
 30
5.0335001945495605
 11
28.0
 21
14.0
 31
5.033500671386719
 12
24.0
 22
14.0
 32
5.033500671386719
 13
24.0
 23
14.0
 33
5.033500671386719
  0
3DFACE
  8
0
 10
28.0
 20
-2.2002127764153556e-07
 30
5.0335001945495605
 11
24.0
 21
14.0
 31
5.033500671386719
 12
22.299999237060547
 22
19.700000762939453
 32
5.033501148223877
 13
22.299999237060547
 23
19.700000762939453
 33
5.033501148223877
  0
3DFACE
  8
0
 10
28.0
 20
-2.2002127764153556e-07
 30
5.0335001945495605
 11
22.299999237060547
 21
19.700000762939453
 31
5.033501148223877
 12
22.299999237060547
 22
16.299999237060547
 32
5.033500671386719
 13
22.299999237060547
 23
16.299999237060547
 33
5.033500671386719
  0
3DFACE
  8
0
 10
28.0
 20
-2.2002127764153556e-07
 30
5.0335001945495605
 11
22.299999237060547
 21
16.299999237060547
 31
5.033500671386719
 12
22.017200469970703
 22
14.151800155639648
 32
5.033500671386719
 13
22.017200469970703
 23
14.151800155639648
 33
5.033500671386719
  0
3DFACE
  8
0
 10
28.0
 20
-2.2002127764153556e-07
 30
5.0335001945495605
 11
22.017200469970703
 21
14.151800155639648
 31
5.033500671386719
 12
21.187999725341797
 22
12.149999618530273
 32
5.033500671386719
 13
21.187999725341797
 23
12.149999618530273
 33
5.033500671386719
  0
3DFACE
  8
0
 10
28.0
 20
-2.2002127764153556e-07
 30
5.0335001945495605
 11
21.187999725341797
 21
12.149999618530273
 31
5.033500671386719
 12
19.868999481201172
 22
10.430999755859375
 32
5.033500671386719
 13
19.868999481201172
 23
10.430999755859375
 33
5.033500671386719
  0
3DFACE
  8
0
 10
28.0
 20
-2.2002127764153556e-07
 30
5.0335001945495605
 11
19.868999481201172
 21
10.430999755859375
 31
5.033500671386719
 12
18.149999618530273
 22
9.112000465393066
 32
5.033500671386719
 13
18.149999618530273
 23
9.112000465393066
 33
5.033500671386719
  0
3DFACE
  8
0
 10
28.0
 20
-2.2002127764153556e-07
 30
5.0335001945495605
 11
18.149999618530273
 21
9.112000465393066
 31
5.033500671386719
 12
16.1481990814209
 22
8.28279972076416
 32
5.033500671386719
 13
16.1481990814209
 23
8.28279972076416
 33
5.033500671386719
  0
3DFACE
  8
0
 10
28.0
 20
-2.2002127764153556e-07
 30
5.0335001945495605
 11
16.1481990814209
 21
8.28279972076416
 31
5.033500671386719
 12
14.0
 22
8.0
 32
5.033500671386719
 13
14.0
 23
8.0
 33
5.033500671386719
  0
3DFACE
  8
0
 10
28.0
 20
-2.2002127764153556e-07
 30
5.0335001945495605
 11
14.0
 21
8.0
 31
5.033500671386719
 12
11.851799964904785
 22
8.28279972076416
 32
5.033500671386719
 13
11.851799964904785
 23
8.28279972076416
 33
5.033500671386719
  0
3DFACE
  8
0
 10
0.0
 20
14.0
 30
5.033500671386719
 11
0.0
 21
-2.2002127764153556e-07
 31
5.0335001945495605
 12
8.130999565124512
 22
10.430999755859375
 32
5.033500671386719
 13
8.130999565124512
 23
10.430999755859375
 33
5.033500671386719
  0
3DFACE
  8
0
 10
0.0
 20
-2.2002127764153556e-07
 30
5.0335001945495605
 11
28.0
 21
-2.2002127764153556e-07
 31
5.0335001945495605
 12
11.851799964904785
 22
8.28279972076416
 32
5.033500671386719
 13
11.851799964904785
 23
8.28279972076416
 33
5.033500671386719
  0
3DFACE
  8
0
 10
9.850000381469727
 20
9.112000465393066
 30
5.033500671386719
 11
0.0
 21
-2.2002127764153556e-07
 31
5.0335001945495605
 12
11.851799964904785
 22
8.28279972076416
 32
5.033500671386719
 13
11.851799964904785
 23
8.28279972076416
 33
5.033500671386719
  0
3DFACE
  8
0
 10
4.0
 20
14.0
 30
5.033500671386719
 11
0.0
 21
14.0
 31
5.033500671386719
 12
8.130999565124512
 22
10.430999755859375
 32
5.033500671386719
 13
8.130999565124512
 23
10.430999755859375
 33
5.033500671386719
  0
3DFACE
  8
0
 10
4.0
 20
14.0
 30
5.033500671386719
 11
8.130999565124512
 21
10.430999755859375
 31
5.033500671386719
 12
6.811999797821045
 22
12.149999618530273
 32
5.033500671386719
 13
6.811999797821045
 23
12.149999618530273
 33
5.033500671386719
  0
3DFACE
  8
0
 10
4.0
 20
14.0
 30
5.033500671386719
 11
6.811999797821045
 21
12.149999618530273
 31
5.033500671386719
 12
5.982800006866455
 22
14.151800155639648
 32
5.033500671386719
 13
5.982800006866455
 23
14.151800155639648
 33
5.033500671386719
  0
3DFACE
  8
0
 10
5.982800006866455
 20
14.151800155639648
 30
5.033500671386719
 11
5.699999809265137
 21
16.299999237060547
 31
5.033500671386719
 12
4.0
 22
14.0
 32
5.033500671386719
 13
4.0
 23
14.0
 33
5.033500671386719
  0
3DFACE
  8
0
 10
8.130999565124512
 20
10.430999755859375
 30
5.033500671386719
 11
0.0
 21
-2.2002127764153556e-07
 31
5.0335001945495605
 12
9.850000381469727
 22
9.112000465393066
 32
5.033500671386719
 13
9.850000381469727
 23
9.112000465393066
 33
5.033500671386719
  0
3DFACE
  8
0
 10
28.0
 20
-1.4644232493310483e-09
 30
0.03350209817290306
 11
0.0
 21
-1.4644232493310483e-09
 31
0.03350209817290306
 12
9.850000381469727
 22
9.112000465393066
 32
0.033502496778964996
 13
9.850000381469727
 23
9.112000465393066
 33
0.033502496778964996
  0
3DFACE
  8
0
 10
28.0
 20
-1.4644232493310483e-09
 30
0.03350209817290306
 11
9.850000381469727
 21
9.112000465393066
 31
0.033502496778964996
 12
11.851799964904785
 22
8.28279972076416
 32
0.03350245952606201
 13
11.851799964904785
 23
8.28279972076416
 33
0.03350245952606201
  0
3DFACE
  8
0
 10
28.0
 20
-1.4644232493310483e-09
 30
0.03350209817290306
 11
11.851799964904785
 21
8.28279972076416
 31
0.03350245952606201
 12
14.0
 22
8.0
 32
0.033502448350191116
 13
14.0
 23
8.0
 33
0.033502448350191116
  0
3DFACE
  8
0
 10
28.0
 20
-1.4644232493310483e-09
 30
0.03350209817290306
 11
14.0
 21
8.0
 31
0.033502448350191116
 12
16.1481990814209
 22
8.28279972076416
 32
0.03350245952606201
 13
16.1481990814209
 23
8.28279972076416
 33
0.03350245952606201
  0
3DFACE
  8
0
 10
28.0
 20
-1.4644232493310483e-09
 30
0.03350209817290306
 11
16.1481990814209
 21
8.28279972076416
 31
0.03350245952606201
 12
18.149999618530273
 22
9.112000465393066
 32
0.033502496778964996
 13
18.149999618530273
 23
9.112000465393066
 33
0.033502496778964996
  0
3DFACE
  8
0
 10
28.0
 20
-1.4644232493310483e-09
 30
0.03350209817290306
 11
18.149999618530273
 21
9.112000465393066
 31
0.033502496778964996
 12
19.868999481201172
 22
10.430999755859375
 32
0.03350255265831947
 13
19.868999481201172
 23
10.430999755859375
 33
0.03350255265831947
  0
3DFACE
  8
0
 10
28.0
 20
-1.4644232493310483e-09
 30
0.03350209817290306
 11
19.868999481201172
 21
10.430999755859375
 31
0.03350255265831947
 12
21.187999725341797
 22
12.149999618530273
 32
0.03350263088941574
 13
21.187999725341797
 23
12.149999618530273
 33
0.03350263088941574
  0
3DFACE
  8
0
 10
28.0
 20
-1.4644232493310483e-09
 30
0.03350209817290306
 11
21.187999725341797
 21
12.149999618530273
 31
0.03350263088941574
 12
22.017200469970703
 22
14.151800155639648
 32
0.033502716571092606
 13
22.017200469970703
 23
14.151800155639648
 33
0.033502716571092606
  0
3DFACE
  8
0
 10
28.0
 20
-1.4644232493310483e-09
 30
0.03350209817290306
 11
22.017200469970703
 21
14.151800155639648
 31
0.033502716571092606
 12
22.299999237060547
 22
16.299999237060547
 32
0.03350280970335007
 13
22.299999237060547
 23
16.299999237060547
 33
0.03350280970335007
  0
3DFACE
  8
0
 10
28.0
 20
-1.4644232493310483e-09
 30
0.03350209817290306
 11
22.299999237060547
 21
16.299999237060547
 31
0.03350280970335007
 12
28.0
 22
34.0
 32
0.03350358456373215
 13
28.0
 23
34.0
 33
0.03350358456373215
  0
3DFACE
  8
0
 10
0.0
 20
-1.4644232493310483e-09
 30
0.03350209817290306
 11
0.0
 21
34.0
 31
0.03350358456373215
 12
5.982800006866455
 22
21.84819984436035
 32
0.03350305184721947
 13
5.982800006866455
 23
21.84819984436035
 33
0.03350305184721947
  0
3DFACE
  8
0
 10
0.0
 20
-1.4644232493310483e-09
 30
0.03350209817290306
 11
5.982800006866455
 21
21.84819984436035
 31
0.03350305184721947
 12
5.699999809265137
 22
19.700000762939453
 32
0.033502958714962006
 13
5.699999809265137
 23
19.700000762939453
 33
0.033502958714962006
  0
3DFACE
  8
0
 10
0.0
 20
-1.4644232493310483e-09
 30
0.03350209817290306
 11
5.699999809265137
 21
19.700000762939453
 31
0.033502958714962006
 12
5.699999809265137
 22
16.299999237060547
 32
0.03350280970335007
 13
5.699999809265137
 23
16.299999237060547
 33
0.03350280970335007
  0
3DFACE
  8
0
 10
0.0
 20
-1.4644232493310483e-09
 30
0.03350209817290306
 11
5.699999809265137
 21
16.299999237060547
 31
0.03350280970335007
 12
5.982800006866455
 22
14.151800155639648
 32
0.033502716571092606
 13
5.982800006866455
 23
14.151800155639648
 33
0.033502716571092606
  0
3DFACE
  8
0
 10
0.0
 20
-1.4644232493310483e-09
 30
0.03350209817290306
 11
5.982800006866455
 21
14.151800155639648
 31
0.033502716571092606
 12
6.811999797821045
 22
12.149999618530273
 32
0.03350263088941574
 13
6.811999797821045
 23
12.149999618530273
 33
0.03350263088941574
  0
3DFACE
  8
0
 10
0.0
 20
-1.4644232493310483e-09
 30
0.03350209817290306
 11
6.811999797821045
 21
12.149999618530273
 31
0.03350263088941574
 12
8.130999565124512
 22
10.430999755859375
 32
0.03350255265831947
 13
8.130999565124512
 23
10.430999755859375
 33
0.03350255265831947
  0
3DFACE
  8
0
 10
8.130999565124512
 20
10.430999755859375
 30
0.03350255265831947
 11
9.850000381469727
 21
9.112000465393066
 31
0.033502496778964996
 12
0.0
 22
-1.4644232493310483e-09
 32
0.03350209817290306
 13
0.0
 23
-1.4644232493310483e-09
 33
0.03350209817290306
  0
3DFACE
  8
0
 10
28.0
 20
34.0
 30
0.03350358456373215
 11
22.299999237060547
 21
16.299999237060547
 31
0.03350280970335007
 12
22.299999237060547
 22
19.700000762939453
 32
0.033502958714962006
 13
22.299999237060547
 23
19.700000762939453
 33
0.033502958714962006
  0
3DFACE
  8
0
 10
28.0
 20
34.0
 30
0.03350358456373215
 11
22.299999237060547
 21
19.700000762939453
 31
0.033502958714962006
 12
22.017200469970703
 22
21.84819984436035
 32
0.03350305184721947
 13
22.017200469970703
 23
21.84819984436035
 33
0.03350305184721947
  0
3DFACE
  8
0
 10
28.0
 20
34.0
 30
0.03350358456373215
 11
22.017200469970703
 21
21.84819984436035
 31
0.03350305184721947
 12
21.187999725341797
 22
23.850000381469727
 32
0.03350314125418663
 13
21.187999725341797
 23
23.850000381469727
 33
0.03350314125418663
  0
3DFACE
  8
0
 10
28.0
 20
34.0
 30
0.03350358456373215
 11
21.187999725341797
 21
23.850000381469727
 31
0.03350314125418663
 12
19.868999481201172
 22
25.569000244140625
 32
0.0335032157599926
 13
19.868999481201172
 23
25.569000244140625
 33
0.0335032157599926
  0
3DFACE
  8
0
 10
28.0
 20
34.0
 30
0.03350358456373215
 11
19.868999481201172
 21
25.569000244140625
 31
0.0335032157599926
 12
18.149999618530273
 22
26.88800048828125
 32
0.033503271639347076
 13
18.149999618530273
 23
26.88800048828125
 33
0.033503271639347076
  0
3DFACE
  8
0
 10
28.0
 20
34.0
 30
0.03350358456373215
 11
18.149999618530273
 21
26.88800048828125
 31
0.033503271639347076
 12
16.1481990814209
 22
27.717199325561523
 32
0.03350330889225006
 13
16.1481990814209
 23
27.717199325561523
 33
0.03350330889225006
  0
3DFACE
  8
0
 10
28.0
 20
34.0
 30
0.03350358456373215
 11
16.1481990814209
 21
27.717199325561523
 31
0.03350330889225006
 12
14.0
 22
28.0
 32
0.033503323793411255
 13
14.0
 23
28.0
 33
0.033503323793411255
  0
3DFACE
  8
0
 10
28.0
 20
34.0
 30
0.03350358456373215
 11
14.0
 21
28.0
 31
0.033503323793411255
 12
11.851799964904785
 22
27.717199325561523
 32
0.03350330889225006
 13
11.851799964904785
 23
27.717199325561523
 33
0.03350330889225006
  0
3DFACE
  8
0
 10
28.0
 20
34.0
 30
0.03350358456373215
 11
11.851799964904785
 21
27.717199325561523
 31
0.03350330889225006
 12
0.0
 22
34.0
 32
0.03350358456373215
 13
0.0
 23
34.0
 33
0.03350358456373215
  0
3DFACE
  8
0
 10
0.0
 20
34.0
 30
0.03350358456373215
 11
11.851799964904785
 21
27.717199325561523
 31
0.03350330889225006
 12
9.850000381469727
 22
26.88800048828125
 32
0.033503271639347076
 13
9.850000381469727
 23
26.88800048828125
 33
0.033503271639347076
  0
3DFACE
  8
0
 10
0.0
 20
34.0
 30
0.03350358456373215
 11
9.850000381469727
 21
26.88800048828125
 31
0.033503271639347076
 12
8.130999565124512
 22
25.569000244140625
 32
0.0335032157599926
 13
8.130999565124512
 23
25.569000244140625
 33
0.0335032157599926
  0
3DFACE
  8
0
 10
0.0
 20
34.0
 30
0.03350358456373215
 11
8.130999565124512
 21
25.569000244140625
 31
0.0335032157599926
 12
6.811999797821045
 22
23.850000381469727
 32
0.03350314125418663
 13
6.811999797821045
 23
23.850000381469727
 33
0.03350314125418663
  0
3DFACE
  8
0
 10
5.982800006866455
 20
21.84819984436035
 30
0.03350305184721947
 11
0.0
 21
34.0
 31
0.03350358456373215
 12
6.811999797821045
 22
23.850000381469727
 32
0.03350314125418663
 13
6.811999797821045
 23
23.850000381469727
 33
0.03350314125418663
  0
3DFACE
  8
0
 10
28.0
 20
34.0
 30
0.03350358456373215
 11
0.0
 21
34.0
 31
0.03350358456373215
 12
0.0
 22
36.0
 32
0.569303572177887
 13
0.0
 23
36.0
 33
0.569303572177887
  0
3DFACE
  8
0
 10
28.0
 20
34.0
 30
0.03350358456373215
 11
0.0
 21
36.0
 31
0.569303572177887
 12
28.0
 22
36.0
 32
0.569303572177887
 13
28.0
 23
36.0
 33
0.569303572177887
  0
3DFACE
  8
0
 10
0.0
 20
36.0
 30
0.569303572177887
 11
0.0
 21
37.46419906616211
 31
2.033501625061035
 12
28.0
 22
37.46419906616211
 32
2.033501625061035
 13
28.0
 23
37.46419906616211
 33
2.033501625061035
  0
3DFACE
  8
0
 10
0.0
 20
36.0
 30
0.569303572177887
 11
28.0
 21
37.46419906616211
 31
2.033501625061035
 12
28.0
 22
36.0
 32
0.569303572177887
 13
28.0
 23
36.0
 33
0.569303572177887
  0
3DFACE
  8
0
 10
0.0
 20
37.46419906616211
 30
2.033501625061035
 11
0.0
 21
38.0
 31
4.033501625061035
 12
28.0
 22
38.0
 32
4.033501625061035
 13
28.0
 23
38.0
 33
4.033501625061035
  0
3DFACE
  8
0
 10
0.0
 20
37.46419906616211
 30
2.033501625061035
 11
28.0
 21
38.0
 31
4.033501625061035
 12
28.0
 22
37.46419906616211
 32
2.033501625061035
 13
28.0
 23
37.46419906616211
 33
2.033501625061035
  0
3DFACE
  8
0
 10
0.0
 20
-1.4644232493310483e-09
 30
0.03350209817290306
 11
28.0
 21
-1.4644232493310483e-09
 31
0.03350209817290306
 12
28.0
 22
-2.2002127764153556e-07
 32
5.0335001945495605
 13
28.0
 23
-2.2002127764153556e-07
 33
5.0335001945495605
  0
3DFACE
  8
0
 10
0.0
 20
-1.4644232493310483e-09
 30
0.03350209817290306
 11
28.0
 21
-2.2002127764153556e-07
 31
5.0335001945495605
 12
0.0
 22
-2.2002127764153556e-07
 32
5.0335001945495605
 13
0.0
 23
-2.2002127764153556e-07
 33
5.0335001945495605
  0
3DFACE
  8
0
 10
0.0
 20
38.0
 30
4.033501625061035
 11
0.0
 21
38.0
 31
17.03350257873535
 12
28.0
 22
38.0
 32
17.03350257873535
 13
28.0
 23
38.0
 33
17.03350257873535
  0
3DFACE
  8
0
 10
0.0
 20
38.0
 30
4.033501625061035
 11
28.0
 21
38.0
 31
17.03350257873535
 12
28.0
 22
38.0
 32
4.033501625061035
 13
28.0
 23
38.0
 33
4.033501625061035
  0
3DFACE
  8
0
 10
5.699999809265137
 20
19.700000762939453
 30
5.033501148223877
 11
5.699999809265137
 21
16.299999237060547
 31
5.033500671386719
 12
5.699999809265137
 22
16.299999237060547
 32
0.03350280970335007
 13
5.699999809265137
 23
16.299999237060547
 33
0.03350280970335007
  0
3DFACE
  8
0
 10
5.699999809265137
 20
19.700000762939453
 30
5.033501148223877
 11
5.699999809265137
 21
16.299999237060547
 31
0.03350280970335007
 12
5.699999809265137
 22
19.700000762939453
 32
0.033502958714962006
 13
5.699999809265137
 23
19.700000762939453
 33
0.033502958714962006
  0
3DFACE
  8
0
 10
22.299999237060547
 20
19.700000762939453
 30
5.033501148223877
 11
22.299999237060547
 21
19.700000762939453
 31
0.033502958714962006
 12
22.299999237060547
 22
16.299999237060547
 32
0.03350280970335007
 13
22.299999237060547
 23
16.299999237060547
 33
0.03350280970335007
  0
3DFACE
  8
0
 10
22.299999237060547
 20
19.700000762939453
 30
5.033501148223877
 11
22.299999237060547
 21
16.299999237060547
 31
0.03350280970335007
 12
22.299999237060547
 22
16.299999237060547
 32
5.033500671386719
 13
22.299999237060547
 23
16.299999237060547
 33
5.033500671386719
  0
3DFACE
  8
0
 10
5.699999809265137
 20
19.700000762939453
 30
0.033502958714962006
 11
5.982800006866455
 21
21.84819984436035
 31
0.03350305184721947
 12
5.699999809265137
 22
19.700000762939453
 32
5.033501148223877
 13
5.699999809265137
 23
19.700000762939453
 33
5.033501148223877
  0
3DFACE
  8
0
 10
5.982800006866455
 20
21.84819984436035
 30
5.033501148223877
 11
5.699999809265137
 21
19.700000762939453
 31
5.033501148223877
 12
5.982800006866455
 22
21.84819984436035
 32
0.03350305184721947
 13
5.982800006866455
 23
21.84819984436035
 33
0.03350305184721947
  0
3DFACE
  8
0
 10
22.017200469970703
 20
14.151800155639648
 30
0.033502716571092606
 11
22.017200469970703
 21
14.151800155639648
 31
5.033500671386719
 12
22.299999237060547
 22
16.299999237060547
 32
5.033500671386719
 13
22.299999237060547
 23
16.299999237060547
 33
5.033500671386719
  0
3DFACE
  8
0
 10
22.299999237060547
 20
16.299999237060547
 30
5.033500671386719
 11
22.299999237060547
 21
16.299999237060547
 31
0.03350280970335007
 12
22.017200469970703
 22
14.151800155639648
 32
0.033502716571092606
 13
22.017200469970703
 23
14.151800155639648
 33
0.033502716571092606
  0
3DFACE
  8
0
 10
5.699999809265137
 20
16.299999237060547
 30
0.03350280970335007
 11
5.699999809265137
 21
16.299999237060547
 31
5.033500671386719
 12
5.982800006866455
 22
14.151800155639648
 32
5.033500671386719
 13
5.982800006866455
 23
14.151800155639648
 33
5.033500671386719
  0
3DFACE
  8
0
 10
5.699999809265137
 20
16.299999237060547
 30
0.03350280970335007
 11
5.982800006866455
 21
14.151800155639648
 31
5.033500671386719
 12
5.982800006866455
 22
14.151800155639648
 32
0.033502716571092606
 13
5.982800006866455
 23
14.151800155639648
 33
0.033502716571092606
  0
3DFACE
  8
0
 10
22.017200469970703
 20
21.84819984436035
 30
5.033501148223877
 11
22.017200469970703
 21
21.84819984436035
 31
0.03350305184721947
 12
22.299999237060547
 22
19.700000762939453
 32
0.033502958714962006
 13
22.299999237060547
 23
19.700000762939453
 33
0.033502958714962006
  0
3DFACE
  8
0
 10
22.017200469970703
 20
21.84819984436035
 30
5.033501148223877
 11
22.299999237060547
 21
19.700000762939453
 31
0.033502958714962006
 12
22.299999237060547
 22
19.700000762939453
 32
5.033501148223877
 13
22.299999237060547
 23
19.700000762939453
 33
5.033501148223877
  0
3DFACE
  8
0
 10
21.187999725341797
 20
12.149999618530273
 30
5.033500671386719
 11
22.017200469970703
 21
14.151800155639648
 31
5.033500671386719
 12
21.187999725341797
 22
12.149999618530273
 32
0.03350263088941574
 13
21.187999725341797
 23
12.149999618530273
 33
0.03350263088941574
  0
3DFACE
  8
0
 10
22.017200469970703
 20
14.151800155639648
 30
0.033502716571092606
 11
21.187999725341797
 21
12.149999618530273
 31
0.03350263088941574
 12
22.017200469970703
 22
14.151800155639648
 32
5.033500671386719
 13
22.017200469970703
 23
14.151800155639648
 33
5.033500671386719
  0
3DFACE
  8
0
 10
5.982800006866455
 20
21.84819984436035
 30
0.03350305184721947
 11
6.811999797821045
 21
23.850000381469727
 31
0.03350314125418663
 12
5.982800006866455
 22
21.84819984436035
 32
5.033501148223877
 13
5.982800006866455
 23
21.84819984436035
 33
5.033501148223877
  0
3DFACE
  8
0
 10
6.811999797821045
 20
23.850000381469727
 30
5.033501148223877
 11
5.982800006866455
 21
21.84819984436035
 31
5.033501148223877
 12
6.811999797821045
 22
23.850000381469727
 32
0.03350314125418663
 13
6.811999797821045
 23
23.850000381469727
 33
0.03350314125418663
  0
3DFACE
  8
0
 10
21.187999725341797
 20
23.850000381469727
 30
5.033501148223877
 11
21.187999725341797
 21
23.850000381469727
 31
0.03350314125418663
 12
22.017200469970703
 22
21.84819984436035
 32
0.03350305184721947
 13
22.017200469970703
 23
21.84819984436035
 33
0.03350305184721947
  0
3DFACE
  8
0
 10
21.187999725341797
 20
23.850000381469727
 30
5.033501148223877
 11
22.017200469970703
 21
21.84819984436035
 31
0.03350305184721947
 12
22.017200469970703
 22
21.84819984436035
 32
5.033501148223877
 13
22.017200469970703
 23
21.84819984436035
 33
5.033501148223877
  0
3DFACE
  8
0
 10
6.811999797821045
 20
12.149999618530273
 30
5.033500671386719
 11
6.811999797821045
 21
12.149999618530273
 31
0.03350263088941574
 12
5.982800006866455
 22
14.151800155639648
 32
0.033502716571092606
 13
5.982800006866455
 23
14.151800155639648
 33
0.033502716571092606
  0
3DFACE
  8
0
 10
6.811999797821045
 20
12.149999618530273
 30
5.033500671386719
 11
5.982800006866455
 21
14.151800155639648
 31
0.033502716571092606
 12
5.982800006866455
 22
14.151800155639648
 32
5.033500671386719
 13
5.982800006866455
 23
14.151800155639648
 33
5.033500671386719
  0
3DFACE
  8
0
 10
6.811999797821045
 20
12.149999618530273
 30
0.03350263088941574
 11
6.811999797821045
 21
12.149999618530273
 31
5.033500671386719
 12
8.130999565124512
 22
10.430999755859375
 32
5.033500671386719
 13
8.130999565124512
 23
10.430999755859375
 33
5.033500671386719
  0
3DFACE
  8
0
 10
6.811999797821045
 20
12.149999618530273
 30
0.03350263088941574
 11
8.130999565124512
 21
10.430999755859375
 31
5.033500671386719
 12
8.130999565124512
 22
10.430999755859375
 32
0.03350255265831947
 13
8.130999565124512
 23
10.430999755859375
 33
0.03350255265831947
  0
3DFACE
  8
0
 10
19.868999481201172
 20
25.569000244140625
 30
0.0335032157599926
 11
21.187999725341797
 21
23.850000381469727
 31
0.03350314125418663
 12
21.187999725341797
 22
23.850000381469727
 32
5.033501148223877
 13
21.187999725341797
 23
23.850000381469727
 33
5.033501148223877
  0
3DFACE
  8
0
 10
19.868999481201172
 20
25.569000244140625
 30
0.0335032157599926
 11
21.187999725341797
 21
23.850000381469727
 31
5.033501148223877
 12
19.868999481201172
 22
25.569000244140625
 32
5.033501148223877
 13
19.868999481201172
 23
25.569000244140625
 33
5.033501148223877
  0
3DFACE
  8
0
 10
21.187999725341797
 20
12.149999618530273
 30
5.033500671386719
 11
21.187999725341797
 21
12.149999618530273
 31
0.03350263088941574
 12
19.868999481201172
 22
10.430999755859375
 32
0.03350255265831947
 13
19.868999481201172
 23
10.430999755859375
 33
0.03350255265831947
  0
3DFACE
  8
0
 10
19.868999481201172
 20
10.430999755859375
 30
5.033500671386719
 11
21.187999725341797
 21
12.149999618530273
 31
5.033500671386719
 12
19.868999481201172
 22
10.430999755859375
 32
0.03350255265831947
 13
19.868999481201172
 23
10.430999755859375
 33
0.03350255265831947
  0
3DFACE
  8
0
 10
6.811999797821045
 20
23.850000381469727
 30
0.03350314125418663
 11
8.130999565124512
 21
25.569000244140625
 31
0.0335032157599926
 12
8.130999565124512
 22
25.569000244140625
 32
5.033501148223877
 13
8.130999565124512
 23
25.569000244140625
 33
5.033501148223877
  0
3DFACE
  8
0
 10
6.811999797821045
 20
23.850000381469727
 30
0.03350314125418663
 11
8.130999565124512
 21
25.569000244140625
 31
5.033501148223877
 12
6.811999797821045
 22
23.850000381469727
 32
5.033501148223877
 13
6.811999797821045
 23
23.850000381469727
 33
5.033501148223877
  0
3DFACE
  8
0
 10
19.868999481201172
 20
10.430999755859375
 30
0.03350255265831947
 11
18.149999618530273
 21
9.112000465393066
 31
0.033502496778964996
 12
19.868999481201172
 22
10.430999755859375
 32
5.033500671386719
 13
19.868999481201172
 23
10.430999755859375
 33
5.033500671386719
  0
3DFACE
  8
0
 10
18.149999618530273
 20
9.112000465393066
 30
5.033500671386719
 11
19.868999481201172
 21
10.430999755859375
 31
5.033500671386719
 12
18.149999618530273
 22
9.112000465393066
 32
0.033502496778964996
 13
18.149999618530273
 23
9.112000465393066
 33
0.033502496778964996
  0
3DFACE
  8
0
 10
9.850000381469727
 20
26.88800048828125
 30
5.033501148223877
 11
8.130999565124512
 21
25.569000244140625
 31
5.033501148223877
 12
8.130999565124512
 22
25.569000244140625
 32
0.0335032157599926
 13
8.130999565124512
 23
25.569000244140625
 33
0.0335032157599926
  0
3DFACE
  8
0
 10
9.850000381469727
 20
26.88800048828125
 30
5.033501148223877
 11
8.130999565124512
 21
25.569000244140625
 31
0.0335032157599926
 12
9.850000381469727
 22
26.88800048828125
 32
0.033503271639347076
 13
9.850000381469727
 23
26.88800048828125
 33
0.033503271639347076
  0
3DFACE
  8
0
 10
9.850000381469727
 20
9.112000465393066
 30
5.033500671386719
 11
9.850000381469727
 21
9.112000465393066
 31
0.033502496778964996
 12
8.130999565124512
 22
10.430999755859375
 32
0.03350255265831947
 13
8.130999565124512
 23
10.430999755859375
 33
0.03350255265831947
  0
3DFACE
  8
0
 10
9.850000381469727
 20
9.112000465393066
 30
5.033500671386719
 11
8.130999565124512
 21
10.430999755859375
 31
0.03350255265831947
 12
8.130999565124512
 22
10.430999755859375
 32
5.033500671386719
 13
8.130999565124512
 23
10.430999755859375
 33
5.033500671386719
  0
3DFACE
  8
0
 10
18.149999618530273
 20
26.88800048828125
 30
5.033501148223877
 11
18.149999618530273
 21
26.88800048828125
 31
0.033503271639347076
 12
19.868999481201172
 22
25.569000244140625
 32
0.0335032157599926
 13
19.868999481201172
 23
25.569000244140625
 33
0.0335032157599926
  0
3DFACE
  8
0
 10
18.149999618530273
 20
26.88800048828125
 30
5.033501148223877
 11
19.868999481201172
 21
25.569000244140625
 31
0.0335032157599926
 12
19.868999481201172
 22
25.569000244140625
 32
5.033501148223877
 13
19.868999481201172
 23
25.569000244140625
 33
5.033501148223877
  0
3DFACE
  8
0
 10
16.1481990814209
 20
8.28279972076416
 30
0.03350245952606201
 11
18.149999618530273
 21
9.112000465393066
 31
5.033500671386719
 12
18.149999618530273
 22
9.112000465393066
 32
0.033502496778964996
 13
18.149999618530273
 23
9.112000465393066
 33
0.033502496778964996
  0
3DFACE
  8
0
 10
16.1481990814209
 20
8.28279972076416
 30
5.033500671386719
 11
18.149999618530273
 21
9.112000465393066
 31
5.033500671386719
 12
16.1481990814209
 22
8.28279972076416
 32
0.03350245952606201
 13
16.1481990814209
 23
8.28279972076416
 33
0.03350245952606201
  0
3DFACE
  8
0
 10
9.850000381469727
 20
26.88800048828125
 30
0.033503271639347076
 11
11.851799964904785
 21
27.717199325561523
 31
0.03350330889225006
 12
11.851799964904785
 22
27.717199325561523
 32
5.033501625061035
 13
11.851799964904785
 23
27.717199325561523
 33
5.033501625061035
  0
3DFACE
  8
0
 10
9.850000381469727
 20
26.88800048828125
 30
0.033503271639347076
 11
11.851799964904785
 21
27.717199325561523
 31
5.033501625061035
 12
9.850000381469727
 22
26.88800048828125
 32
5.033501148223877
 13
9.850000381469727
 23
26.88800048828125
 33
5.033501148223877
  0
3DFACE
  8
0
 10
9.850000381469727
 20
9.112000465393066
 30
0.033502496778964996
 11
9.850000381469727
 21
9.112000465393066
 31
5.033500671386719
 12
11.851799964904785
 22
8.28279972076416
 32
5.033500671386719
 13
11.851799964904785
 23
8.28279972076416
 33
5.033500671386719
  0
3DFACE
  8
0
 10
9.850000381469727
 20
9.112000465393066
 30
0.033502496778964996
 11
11.851799964904785
 21
8.28279972076416
 31
5.033500671386719
 12
11.851799964904785
 22
8.28279972076416
 32
0.03350245952606201
 13
11.851799964904785
 23
8.28279972076416
 33
0.03350245952606201
  0
3DFACE
  8
0
 10
18.149999618530273
 20
26.88800048828125
 30
5.033501148223877
 11
16.1481990814209
 21
27.717199325561523
 31
5.033501625061035
 12
16.1481990814209
 22
27.717199325561523
 32
0.03350330889225006
 13
16.1481990814209
 23
27.717199325561523
 33
0.03350330889225006
  0
3DFACE
  8
0
 10
18.149999618530273
 20
26.88800048828125
 30
5.033501148223877
 11
16.1481990814209
 21
27.717199325561523
 31
0.03350330889225006
 12
18.149999618530273
 22
26.88800048828125
 32
0.033503271639347076
 13
18.149999618530273
 23
26.88800048828125
 33
0.033503271639347076
  0
3DFACE
  8
0
 10
11.851799964904785
 20
27.717199325561523
 30
5.033501625061035
 11
11.851799964904785
 21
27.717199325561523
 31
0.03350330889225006
 12
14.0
 22
28.0
 32
5.033501625061035
 13
14.0
 23
28.0
 33
5.033501625061035
  0
3DFACE
  8
0
 10
14.0
 20
28.0
 30
0.033503323793411255
 11
14.0
 21
28.0
 31
5.033501625061035
 12
11.851799964904785
 22
27.717199325561523
 32
0.03350330889225006
 13
11.851799964904785
 23
27.717199325561523
 33
0.03350330889225006
  0
3DFACE
  8
0
 10
14.0
 20
8.0
 30
0.033502448350191116
 11
14.0
 21
8.0
 31
5.033500671386719
 12
16.1481990814209
 22
8.28279972076416
 32
0.03350245952606201
 13
16.1481990814209
 23
8.28279972076416
 33
0.03350245952606201
  0
3DFACE
  8
0
 10
16.1481990814209
 20
8.28279972076416
 30
0.03350245952606201
 11
14.0
 21
8.0
 31
5.033500671386719
 12
16.1481990814209
 22
8.28279972076416
 32
5.033500671386719
 13
16.1481990814209
 23
8.28279972076416
 33
5.033500671386719
  0
3DFACE
  8
0
 10
14.0
 20
8.0
 30
0.033502448350191116
 11
11.851799964904785
 21
8.28279972076416
 31
0.03350245952606201
 12
11.851799964904785
 22
8.28279972076416
 32
5.033500671386719
 13
11.851799964904785
 23
8.28279972076416
 33
5.033500671386719
  0
3DFACE
  8
0
 10
14.0
 20
8.0
 30
0.033502448350191116
 11
11.851799964904785
 21
8.28279972076416
 31
5.033500671386719
 12
14.0
 22
8.0
 32
5.033500671386719
 13
14.0
 23
8.0
 33
5.033500671386719
  0
3DFACE
  8
0
 10
16.1481990814209
 20
27.717199325561523
 30
5.033501625061035
 11
14.0
 21
28.0
 31
5.033501625061035
 12
14.0
 22
28.0
 32
0.033503323793411255
 13
14.0
 23
28.0
 33
0.033503323793411255
  0
3DFACE
  8
0
 10
16.1481990814209
 20
27.717199325561523
 30
0.03350330889225006
 11
16.1481990814209
 21
27.717199325561523
 31
5.033501625061035
 12
14.0
 22
28.0
 32
0.033503323793411255
 13
14.0
 23
28.0
 33
0.033503323793411255
  0
3DFACE
  8
0
 10
4.0
 20
32.86600112915039
 30
5.533501625061035
 11
24.0
 21
32.86600112915039
 31
5.533501625061035
 12
24.0
 22
33.0
 32
6.033501625061035
 13
24.0
 23
33.0
 33
6.033501625061035
  0
3DFACE
  8
0
 10
4.0
 20
32.86600112915039
 30
5.533501625061035
 11
24.0
 21
33.0
 31
6.033501625061035
 12
4.0
 22
33.0
 32
6.033501625061035
 13
4.0
 23
33.0
 33
6.033501625061035
  0
3DFACE
  8
0
 10
0.0
 20
33.0
 30
17.03350257873535
 11
28.0
 21
33.0
 31
17.03350257873535
 12
28.0
 22
38.0
 32
17.03350257873535
 13
28.0
 23
38.0
 33
17.03350257873535
  0
3DFACE
  8
0
 10
0.0
 20
33.0
 30
17.03350257873535
 11
28.0
 21
38.0
 31
17.03350257873535
 12
0.0
 22
38.0
 32
17.03350257873535
 13
0.0
 23
38.0
 33
17.03350257873535
  0
3DFACE
  8
0
 10
28.0
 20
33.0
 30
17.03350257873535
 11
0.0
 21
33.0
 31
17.03350257873535
 12
0.0
 22
33.0
 32
16.433502197265625
 13
0.0
 23
33.0
 33
16.433502197265625
  0
3DFACE
  8
0
 10
28.0
 20
33.0
 30
17.03350257873535
 11
0.0
 21
33.0
 31
16.433502197265625
 12
4.0
 22
33.0
 32
16.433502197265625
 13
4.0
 23
33.0
 33
16.433502197265625
  0
3DFACE
  8
0
 10
28.0
 20
33.0
 30
17.03350257873535
 11
4.0
 21
33.0
 31
16.433502197265625
 12
24.0
 22
33.0
 32
16.433502197265625
 13
24.0
 23
33.0
 33
16.433502197265625
  0
3DFACE
  8
0
 10
28.0
 20
33.0
 30
17.03350257873535
 11
24.0
 21
33.0
 31
16.433502197265625
 12
28.0
 22
33.0
 32
16.433502197265625
 13
28.0
 23
33.0
 33
16.433502197265625
  0
3DFACE
  8
0
 10
24.0
 20
33.0
 30
16.433502197265625
 11
4.0
 21
33.0
 31
16.433502197265625
 12
4.0
 22
33.0
 32
6.033501625061035
 13
4.0
 23
33.0
 33
6.033501625061035
  0
3DFACE
  8
0
 10
24.0
 20
33.0
 30
16.433502197265625
 11
4.0
 21
33.0
 31
6.033501625061035
 12
24.0
 22
33.0
 32
6.033501625061035
 13
24.0
 23
33.0
 33
6.033501625061035
  0
3DFACE
  8
0
 10
4.0
 20
32.5
 30
5.167501449584961
 11
24.0
 21
32.5
 31
5.167501449584961
 12
24.0
 22
32.86600112915039
 32
5.533501625061035
 13
24.0
 23
32.86600112915039
 33
5.533501625061035
  0
3DFACE
  8
0
 10
4.0
 20
32.5
 30
5.167501449584961
 11
24.0
 21
32.86600112915039
 31
5.533501625061035
 12
4.0
 22
32.86600112915039
 32
5.533501625061035
 13
4.0
 23
32.86600112915039
 33
5.533501625061035
  0
3DFACE
  8
0
 10
4.0
 20
32.0
 30
5.033501625061035
 11
24.0
 21
32.0
 31
5.033501625061035
 12
24.0
 22
32.5
 32
5.167501449584961
 13
24.0
 23
32.5
 33
5.167501449584961
  0
3DFACE
  8
0
 10
4.0
 20
32.0
 30
5.033501625061035
 11
24.0
 21
32.5
 31
5.167501449584961
 12
4.0
 22
32.5
 32
5.167501449584961
 13
4.0
 23
32.5
 33
5.167501449584961
  0
3DFACE
  8
0
 10
24.0
 20
32.0
 30
5.033501625061035
 11
24.0
 21
14.0
 31
5.033500671386719
 12
24.0
 22
13.999999046325684
 32
14.433501243591309
 13
24.0
 23
13.999999046325684
 33
14.433501243591309
  0
3DFACE
  8
0
 10
24.0
 20
32.0
 30
5.033501625061035
 11
24.0
 21
13.999999046325684
 31
14.433501243591309
 12
24.0
 22
15.999999046325684
 32
16.433500289916992
 13
24.0
 23
15.999999046325684
 33
16.433500289916992
  0
3DFACE
  8
0
 10
24.0
 20
32.0
 30
5.033501625061035
 11
24.0
 21
15.999999046325684
 31
16.433500289916992
 12
24.0
 22
33.0
 32
16.433502197265625
 13
24.0
 23
33.0
 33
16.433502197265625
  0
3DFACE
  8
0
 10
24.0
 20
32.0
 30
5.033501625061035
 11
24.0
 21
33.0
 31
16.433502197265625
 12
24.0
 22
33.0
 32
6.033501625061035
 13
24.0
 23
33.0
 33
6.033501625061035
  0
3DFACE
  8
0
 10
24.0
 20
32.0
 30
5.033501625061035
 11
24.0
 21
33.0
 31
6.033501625061035
 12
24.0
 22
32.86600112915039
 32
5.533501625061035
 13
24.0
 23
32.86600112915039
 33
5.533501625061035
  0
3DFACE
  8
0
 10
24.0
 20
32.0
 30
5.033501625061035
 11
24.0
 21
32.86600112915039
 31
5.533501625061035
 12
24.0
 22
32.5
 32
5.167501449584961
 13
24.0
 23
32.5
 33
5.167501449584961
  0
3DFACE
  8
0
 10
29.0
 20
15.999999046325684
 30
16.433500289916992
 11
29.0
 21
33.0
 31
16.433502197265625
 12
28.0
 22
33.0
 32
16.433502197265625
 13
28.0
 23
33.0
 33
16.433502197265625
  0
3DFACE
  8
0
 10
29.0
 20
15.999999046325684
 30
16.433500289916992
 11
28.0
 21
33.0
 31
16.433502197265625
 12
24.0
 22
33.0
 32
16.433502197265625
 13
24.0
 23
33.0
 33
16.433502197265625
  0
3DFACE
  8
0
 10
29.0
 20
15.999999046325684
 30
16.433500289916992
 11
24.0
 21
33.0
 31
16.433502197265625
 12
24.0
 22
15.999999046325684
 32
16.433500289916992
 13
24.0
 23
15.999999046325684
 33
16.433500289916992
  0
3DFACE
  8
0
 10
29.0
 20
15.999999046325684
 30
16.433500289916992
 11
24.0
 21
15.999999046325684
 31
16.433500289916992
 12
24.0
 22
13.999999046325684
 32
14.433501243591309
 13
24.0
 23
13.999999046325684
 33
14.433501243591309
  0
3DFACE
  8
0
 10
29.0
 20
15.999999046325684
 30
16.433500289916992
 11
24.0
 21
13.999999046325684
 31
14.433501243591309
 12
29.0
 22
13.999999046325684
 32
14.433501243591309
 13
29.0
 23
13.999999046325684
 33
14.433501243591309
  0
3DFACE
  8
0
 10
29.0
 20
13.999999046325684
 30
14.433501243591309
 11
24.0
 21
13.999999046325684
 31
14.433501243591309
 12
24.0
 22
14.0
 32
5.033500671386719
 13
24.0
 23
14.0
 33
5.033500671386719
  0
3DFACE
  8
0
 10
29.0
 20
13.999999046325684
 30
14.433501243591309
 11
24.0
 21
14.0
 31
5.033500671386719
 12
28.0
 22
14.0
 32
5.033500671386719
 13
28.0
 23
14.0
 33
5.033500671386719
  0
3DFACE
  8
0
 10
29.0
 20
13.999999046325684
 30
14.433501243591309
 11
28.0
 21
14.0
 31
5.033500671386719
 12
29.0
 22
14.0
 32
5.033500671386719
 13
29.0
 23
14.0
 33
5.033500671386719
  0
3DFACE
  8
0
 10
4.0
 20
33.0
 30
16.433502197265625
 11
4.0
 21
15.999999046325684
 31
16.433500289916992
 12
4.0
 22
13.999999046325684
 32
14.433501243591309
 13
4.0
 23
13.999999046325684
 33
14.433501243591309
  0
3DFACE
  8
0
 10
4.0
 20
33.0
 30
16.433502197265625
 11
4.0
 21
13.999999046325684
 31
14.433501243591309
 12
4.0
 22
14.0
 32
5.033500671386719
 13
4.0
 23
14.0
 33
5.033500671386719
  0
3DFACE
  8
0
 10
4.0
 20
33.0
 30
16.433502197265625
 11
4.0
 21
14.0
 31
5.033500671386719
 12
4.0
 22
32.0
 32
5.033501625061035
 13
4.0
 23
32.0
 33
5.033501625061035
  0
3DFACE
  8
0
 10
4.0
 20
33.0
 30
16.433502197265625
 11
4.0
 21
32.0
 31
5.033501625061035
 12
4.0
 22
32.5
 32
5.167501449584961
 13
4.0
 23
32.5
 33
5.167501449584961
  0
3DFACE
  8
0
 10
4.0
 20
33.0
 30
16.433502197265625
 11
4.0
 21
32.5
 31
5.167501449584961
 12
4.0
 22
32.86600112915039
 32
5.533501625061035
 13
4.0
 23
32.86600112915039
 33
5.533501625061035
  0
3DFACE
  8
0
 10
4.0
 20
33.0
 30
16.433502197265625
 11
4.0
 21
32.86600112915039
 31
5.533501625061035
 12
4.0
 22
33.0
 32
6.033501625061035
 13
4.0
 23
33.0
 33
6.033501625061035
  0
3DFACE
  8
0
 10
4.0
 20
15.999999046325684
 30
16.433500289916992
 11
4.0
 21
33.0
 31
16.433502197265625
 12
0.0
 22
33.0
 32
16.433502197265625
 13
0.0
 23
33.0
 33
16.433502197265625
  0
3DFACE
  8
0
 10
4.0
 20
15.999999046325684
 30
16.433500289916992
 11
0.0
 21
33.0
 31
16.433502197265625
 12
-1.0
 22
33.0
 32
16.433502197265625
 13
-1.0
 23
33.0
 33
16.433502197265625
  0
3DFACE
  8
0
 10
4.0
 20
15.999999046325684
 30
16.433500289916992
 11
-1.0
 21
33.0
 31
16.433502197265625
 12
-1.0
 22
15.999999046325684
 32
16.433500289916992
 13
-1.0
 23
15.999999046325684
 33
16.433500289916992
  0
3DFACE
  8
0
 10
4.0
 20
15.999999046325684
 30
16.433500289916992
 11
-1.0
 21
15.999999046325684
 31
16.433500289916992
 12
-1.0
 22
13.999999046325684
 32
14.433501243591309
 13
-1.0
 23
13.999999046325684
 33
14.433501243591309
  0
3DFACE
  8
0
 10
4.0
 20
15.999999046325684
 30
16.433500289916992
 11
-1.0
 21
13.999999046325684
 31
14.433501243591309
 12
4.0
 22
13.999999046325684
 32
14.433501243591309
 13
4.0
 23
13.999999046325684
 33
14.433501243591309
  0
3DFACE
  8
0
 10
4.0
 20
13.999999046325684
 30
14.433501243591309
 11
-1.0
 21
13.999999046325684
 31
14.433501243591309
 12
-1.0
 22
14.0
 32
5.033500671386719
 13
-1.0
 23
14.0
 33
5.033500671386719
  0
3DFACE
  8
0
 10
4.0
 20
13.999999046325684
 30
14.433501243591309
 11
-1.0
 21
14.0
 31
5.033500671386719
 12
0.0
 22
14.0
 32
5.033500671386719
 13
0.0
 23
14.0
 33
5.033500671386719
  0
3DFACE
  8
0
 10
4.0
 20
13.999999046325684
 30
14.433501243591309
 11
0.0
 21
14.0
 31
5.033500671386719
 12
4.0
 22
14.0
 32
5.033500671386719
 13
4.0
 23
14.0
 33
5.033500671386719
  0
3DFACE
  8
0
 10
29.0
 20
33.0
 30
16.433502197265625
 11
29.0
 21
15.999999046325684
 31
16.433500289916992
 12
29.0
 22
13.999999046325684
 32
14.433501243591309
 13
29.0
 23
13.999999046325684
 33
14.433501243591309
  0
3DFACE
  8
0
 10
29.0
 20
33.0
 30
16.433502197265625
 11
29.0
 21
13.999999046325684
 31
14.433501243591309
 12
29.0
 22
14.0
 32
5.033500671386719
 13
29.0
 23
14.0
 33
5.033500671386719
  0
3DFACE
  8
0
 10
29.0
 20
33.0
 30
16.433502197265625
 11
29.0
 21
14.0
 31
5.033500671386719
 12
29.0
 22
33.0
 32
5.033501625061035
 13
29.0
 23
33.0
 33
5.033501625061035
  0
3DFACE
  8
0
 10
28.0
 20
14.0
 30
5.033500671386719
 11
28.0
 21
33.0
 31
5.033501625061035
 12
29.0
 22
33.0
 32
5.033501625061035
 13
29.0
 23
33.0
 33
5.033501625061035
  0
3DFACE
  8
0
 10
28.0
 20
14.0
 30
5.033500671386719
 11
29.0
 21
33.0
 31
5.033501625061035
 12
29.0
 22
14.0
 32
5.033500671386719
 13
29.0
 23
14.0
 33
5.033500671386719
  0
3DFACE
  8
0
 10
28.0
 20
33.0
 30
5.033501625061035
 11
28.0
 21
33.0
 31
16.433502197265625
 12
29.0
 22
33.0
 32
16.433502197265625
 13
29.0
 23
33.0
 33
16.433502197265625
  0
3DFACE
  8
0
 10
28.0
 20
33.0
 30
5.033501625061035
 11
29.0
 21
33.0
 31
16.433502197265625
 12
29.0
 22
33.0
 32
5.033501625061035
 13
29.0
 23
33.0
 33
5.033501625061035
  0
3DFACE
  8
0
 10
-1.0
 20
14.0
 30
5.033500671386719
 11
-1.0
 21
13.999999046325684
 31
14.433501243591309
 12
-1.0
 22
15.999999046325684
 32
16.433500289916992
 13
-1.0
 23
15.999999046325684
 33
16.433500289916992
  0
3DFACE
  8
0
 10
-1.0
 20
14.0
 30
5.033500671386719
 11
-1.0
 21
15.999999046325684
 31
16.433500289916992
 12
-1.0
 22
33.0
 32
16.433502197265625
 13
-1.0
 23
33.0
 33
16.433502197265625
  0
3DFACE
  8
0
 10
-1.0
 20
14.0
 30
5.033500671386719
 11
-1.0
 21
33.0
 31
16.433502197265625
 12
-1.0
 22
33.0
 32
5.033501625061035
 13
-1.0
 23
33.0
 33
5.033501625061035
  0
3DFACE
  8
0
 10
0.0
 20
33.0
 30
5.033501625061035
 11
0.0
 21
14.0
 31
5.033500671386719
 12
-1.0
 22
14.0
 32
5.033500671386719
 13
-1.0
 23
14.0
 33
5.033500671386719
  0
3DFACE
  8
0
 10
0.0
 20
33.0
 30
5.033501625061035
 11
-1.0
 21
14.0
 31
5.033500671386719
 12
-1.0
 22
33.0
 32
5.033501625061035
 13
-1.0
 23
33.0
 33
5.033501625061035
  0
3DFACE
  8
0
 10
0.0
 20
33.0
 30
16.433502197265625
 11
0.0
 21
33.0
 31
5.033501625061035
 12
-1.0
 22
33.0
 32
5.033501625061035
 13
-1.0
 23
33.0
 33
5.033501625061035
  0
3DFACE
  8
0
 10
0.0
 20
33.0
 30
16.433502197265625
 11
-1.0
 21
33.0
 31
5.033501625061035
 12
-1.0
 22
33.0
 32
16.433502197265625
 13
-1.0
 23
33.0
 33
16.433502197265625
  0
3DFACE
  8
0
 10
5.982800006866455
 20
21.84819984436035
 30
5.033501148223877
 11
6.811999797821045
 21
23.850000381469727
 31
5.033501148223877
 12
4.0
 22
32.0
 32
5.033501625061035
 13
4.0
 23
32.0
 33
5.033501625061035
  0
3DFACE
  8
0
 10
8.130999565124512
 20
25.569000244140625
 30
5.033501148223877
 11
4.0
 21
32.0
 31
5.033501625061035
 12
6.811999797821045
 22
23.850000381469727
 32
5.033501148223877
 13
6.811999797821045
 23
23.850000381469727
 33
5.033501148223877
  0
3DFACE
  8
0
 10
9.850000381469727
 20
26.88800048828125
 30
5.033501148223877
 11
4.0
 21
32.0
 31
5.033501625061035
 12
8.130999565124512
 22
25.569000244140625
 32
5.033501148223877
 13
8.130999565124512
 23
25.569000244140625
 33
5.033501148223877
  0
3DFACE
  8
0
 10
14.0
 20
28.0
 30
5.033501625061035
 11
24.0
 21
32.0
 31
5.033501625061035
 12
4.0
 22
32.0
 32
5.033501625061035
 13
4.0
 23
32.0
 33
5.033501625061035
  0
3DFACE
  8
0
 10
11.851799964904785
 20
27.717199325561523
 30
5.033501625061035
 11
14.0
 21
28.0
 31
5.033501625061035
 12
4.0
 22
32.0
 32
5.033501625061035
 13
4.0
 23
32.0
 33
5.033501625061035
  0
ENDSEC
  0
EOF
